<?xml version="1.0" encoding="UTF-8"?>
<svg width="468px" height="90px" viewBox="0 0 468 90" version="1.1" xmlns="http://www.w3.org/2000/svg" xmlns:xlink="http://www.w3.org/1999/xlink">
    <!-- Generator: Sketch 52.3 (67297) - http://www.bohemiancoding.com/sketch -->
    <title>Artboard</title>
    <desc>Created with Sketch.</desc>
    <g id="Artboard" stroke="none" stroke-width="1" fill="none" fill-rule="evenodd" opacity="0.250534784">
        <g id="Group-8">
            <g id="Icon/Star-Copy-5" opacity="0.040625" transform="translate(59.500000, 46.500000) rotate(108.000000) translate(-59.500000, -46.500000) translate(52.000000, 39.000000)" fill="#FFFFFF" fill-rule="nonzero">
                <polygon id="Rectangle-6" points="5.7 5.48076923 7.5 0 9.3 5.48076923 15 7.5 9.3 9.51923077 7.5 15 5.7 9.51923077 0 7.5"></polygon>
            </g>
            <path d="M129.967908,30.2866867 L132.044475,26.6901164 L116.919796,0.49302475 C116.831992,0.342783931 116.786963,0.172447733 116.786963,-4.54747351e-13 L116.786963,-0.5 L118.612748,-0.5 L133.177773,24.7271585 L147.742483,-0.5 L150.008651,-0.5 L149.437517,0.490230917 L149.426688,0.483985159 C149.426604,0.484186911 149.42652,0.484388435 149.426436,0.484589734 L149.437087,0.490739507 L130.817833,32.740447 C130.642477,33.0440473 130.318546,33.2311111 129.967901,33.2311111 C129.617256,33.2311111 129.293325,33.0440473 129.117925,32.7403691 L110.500042,0.49302475 C110.412239,0.342783931 110.36721,0.172447733 110.36721,-4.54747351e-13 L110.36721,-0.5 L112.192994,-0.5 L129.967908,30.2866867 Z M144.804147,32.2684691 L144.825532,32.2314321 L144.782988,32.2314321 L144.761604,32.2684691 L144.804147,32.2684691 Z M155.5,13.7440561 L155.529365,13.6931985 L155.566986,13.5527918 L155.5,13.6688166 L155.5,13.7440561 Z M155.5,32.2684691 L155.962963,32.2684691 L155.981481,32.2499506 L155.962963,32.2314321 L155.5,32.2314321 L155.5,32.2684691 Z M155.5,38.6879012 L155.962963,38.6879012 L155.981481,38.6693827 L155.962963,38.6508642 L155.5,38.6508642 L155.5,38.6879012 Z M141.119002,38.6508642 L141.086914,38.6508642 C141.093542,38.6508642 141.099654,38.6543939 141.102919,38.6600468 C141.106309,38.6659025 141.106309,38.6728499 141.102919,38.6787186 L141.102955,38.6786556 L141.119002,38.6508642 Z M140.236961,38.1786025 L156.5,10.0122402 L156.5,13.9367637 L146.493626,31.2684691 L156.5,31.2684691 L156.5,33.2314321 L145.36032,33.2314321 L142.787213,37.6879012 L156.5,37.6879012 L156.5,39.6508642 L141.086914,39.6508642 C140.736268,39.6508642 140.412338,39.4638004 140.237216,39.1606047 C140.06155,38.8571222 140.061543,38.4823412 140.236961,38.1786025 Z M155.5,51.5437778 L155.962963,51.5437778 L155.981481,51.5252593 L155.962963,51.5067407 L155.5,51.5067407 L155.5,51.5437778 Z M144.761609,57.9264938 L144.782995,57.9635309 L144.825673,57.9635309 L144.804288,57.9264938 L144.761609,57.9264938 Z M155.5,57.9635309 L155.962963,57.9635309 L155.981481,57.9450123 L155.962963,57.9264938 L155.5,57.9264938 L155.5,57.9635309 Z M155.5,76.5248707 L155.566994,76.6409006 L155.530001,76.5028469 L155.5,76.4508874 L155.5,76.5248707 Z M141.119002,51.5437778 L141.102957,51.5159886 C141.10627,51.5217246 141.10627,51.5287939 141.102919,51.5345951 C141.099654,51.5402481 141.093542,51.5437778 141.086914,51.5437778 L141.119002,51.5437778 Z M142.786911,52.5067407 L145.360314,56.9635309 L156.5,56.9635309 L156.5,58.9264938 L146.493657,58.9264938 L156.5,76.2569071 L156.5,80.1827423 L155.568214,78.5689388 L140.236982,52.0160766 C140.061582,51.7123989 140.061582,51.3381197 140.236982,51.0344419 C140.412338,50.7308415 140.736268,50.5437778 141.086914,50.5437778 L156.5,50.5437778 L156.5,52.5067407 L142.786911,52.5067407 Z M0.5,83.7563704 L0.037037037,83.7563704 L0.0185185185,83.7748889 L0.037037037,83.7934074 L0.5,83.7934074 L0.5,83.7563704 Z M3.69671525,83.7934074 L3.73954372,83.7934074 L3.71815856,83.7563704 L3.67533077,83.7563704 L3.69671525,83.7934074 Z M0.5,78.1828303 L0.433003493,78.0667989 L0.470004057,78.2048767 L0.5,78.2568284 L0.5,78.1828303 Z M34.5147343,83.7934074 L34.5575381,83.7934074 L34.5361544,83.7563704 L34.4933506,83.7563704 L34.5147343,83.7934074 Z M0.5,57.9264938 L0.037037037,57.9264938 L0.0185185185,57.9450123 L0.037037037,57.9635309 L0.5,57.9635309 L0.5,57.9264938 Z M19.6016425,57.9635309 L19.6126667,57.9635309 C19.6059019,57.9635309 19.5994923,57.9598274 19.5959362,57.9536475 L19.6016425,57.9635309 Z M0.5,51.5067407 L0.037037037,51.5067407 L0.0185185185,51.5252593 L0.037037037,51.5437778 L0.5,51.5437778 L0.5,51.5067407 Z M22.3139879,51.5437778 L22.3246914,51.5437778 C22.3182665,51.5437778 22.3118417,51.5400712 22.308453,51.5341915 L22.3139879,51.5437778 Z M40.9127762,83.7563704 L40.9288193,83.7841566 C40.9257332,83.7788349 40.9257332,83.7709556 40.9290291,83.7652583 C40.9320108,83.7600739 40.9384204,83.7563704 40.9451852,83.7563704 L40.9127762,83.7563704 Z M2.00741924,82.7934074 L-0.5,78.4507993 L-0.5,74.5249494 L4.27405018,82.7934074 L32.8254742,82.7934074 L19.0456974,58.9264938 L-0.5,58.9264938 L-0.5,56.9635309 L19.6126667,56.9635309 C19.963537,56.9635309 20.287721,57.1508452 20.4623198,57.454269 L35.0920805,82.7934074 L39.2452056,82.7934074 L21.7580503,52.5067407 L-0.5,52.5067407 L-0.5,50.5437778 L22.3246914,50.5437778 C22.675536,50.5437778 22.9995775,50.7307248 23.1746621,51.0345101 L41.7943913,83.2833728 C41.9706125,83.587338 41.9706125,83.9617852 41.7951996,84.2650056 C41.6202395,84.569056 41.2960555,84.7563704 40.9451852,84.7563704 L34.526716,84.7563704 C34.5264753,84.7563704 34.5264753,84.7563704 34.5262346,84.7563704 C34.5259938,84.7563704 34.5259938,84.7563704 34.5257531,84.7563704 C34.5254722,84.7563704 34.5254722,84.7563704 34.5251111,84.7563704 C34.52475,84.7563704 34.52475,84.7563704 34.5244691,84.7563704 L3.71671605,84.7563704 C3.71438889,84.7563704 3.71438889,84.7563704 3.71222222,84.7563704 C3.71005556,84.7563704 3.71005556,84.7563704 3.7077284,84.7563704 C3.70553624,84.7563704 3.70553624,84.7563704 3.70334408,84.7563704 C3.7012029,84.7563704 3.7012029,84.7563704 3.69906173,84.7563704 L-0.5,84.7563704 L-0.5,82.7934074 L2.00741924,82.7934074 Z M67.3603226,11.8663704 L97.6126667,11.8663704 C97.963537,11.8663704 98.287721,12.0536847 98.4623198,12.3571085 L113.092081,37.6962469 L117.24521,37.6962469 L99.7580488,7.40925926 L64.7868856,7.40925926 L67.3603226,11.8663704 Z M97.0456974,13.8293333 L68.4936562,13.8293333 L82.2740492,37.6962469 L110.825474,37.6962469 L97.0456974,13.8293333 Z M78.5666498,44.116 L128.272761,44.116 L103.373647,0.98982716 L53.6678504,0.98982716 L74.8602067,37.6962469 L80.0074326,37.6962469 L62.2372161,6.91899981 C62.0615819,6.61557197 62.0615819,6.24129254 62.2372161,5.93655575 C62.4126492,5.63347544 62.7364673,5.4462963 63.0869136,5.4462963 L100.324691,5.4462963 C100.675337,5.4462963 100.999267,5.63336006 101.174663,5.93703044 L119.794156,38.1858073 C119.970652,38.4895894 119.970652,38.8645569 119.794967,39.1682494 C119.619929,39.4717793 119.295857,39.6592099 118.945185,39.6592099 L112.526716,39.6592099 C112.526475,39.6592099 112.526475,39.6592099 112.526235,39.6592099 C112.525994,39.6592099 112.525994,39.6592099 112.525753,39.6592099 C112.525472,39.6592099 112.525472,39.6592099 112.525111,39.6592099 C112.52475,39.6592099 112.52475,39.6592099 112.524469,39.6592099 L81.716716,39.6592099 C81.7143889,39.6592099 81.7143889,39.6592099 81.7122222,39.6592099 C81.7100556,39.6592099 81.7100556,39.6592099 81.7077284,39.6592099 C81.7033951,39.6592099 81.7033951,39.6592099 81.6990617,39.6592099 L75.9935089,39.6592099 L78.5666498,44.116 Z M81.7181459,38.6592099 L112.524469,38.6592099 C112.52475,38.6592099 112.52475,38.6592099 112.525111,38.6592099 C112.525472,38.6592099 112.525472,38.6592099 112.525753,38.6592099 C112.525994,38.6592099 112.525994,38.6592099 112.526235,38.6592099 C112.526475,38.6592099 112.526475,38.6592099 112.526716,38.6592099 L118.912776,38.6592099 L100.313988,6.4462963 L63.1190017,6.4462963 L81.7181459,38.6592099 Z M88.6400007,78.3285926 L67.3603203,78.3285926 L64.7872134,82.7850617 L91.2131076,82.7850617 L88.6400007,78.3285926 Z M68.4936264,76.3656296 L87.5066812,76.3656296 L78.0000067,59.8999458 L68.4936264,76.3656296 Z M113.091764,52.498716 L101.955525,71.7875975 L104.032093,75.3841697 L117.245227,52.498716 L113.091764,52.498716 Z M100.822216,69.8246621 L110.825476,52.498716 L90.8186607,52.498716 L100.822216,69.8246621 Z M103.9862,88.1437378 L128.272757,46.078963 L78.56665,46.078963 L53.6678539,89.2048148 L102.332459,89.2048148 L81.7067215,53.4807475 L79.133319,57.9370124 L93.7630178,83.2757259 C93.9384179,83.5794036 93.9384179,83.9536828 93.7630178,84.2573606 C93.5876625,84.5609609 93.2637316,84.7480247 92.9130864,84.7480247 L63.0869136,84.7480247 C62.7362684,84.7480247 62.4123375,84.5609609 62.2369822,84.2573606 C62.0615821,83.9536828 62.0615821,83.5794036 62.2369457,83.2757889 L80.8514967,51.0370678 C80.8614473,51.0214114 80.8691917,51.0092264 80.8754131,50.9995253 C80.8741198,51.0014162 80.8727686,51.0033919 80.871356,51.0054575 C80.9075855,50.9465846 80.9496581,50.8917774 81.0065454,50.8321009 C80.9941662,50.8449656 80.9941662,50.8449656 80.9942338,50.8449806 C81.0004255,50.8379841 81.0004255,50.8379841 81.025641,50.8121511 C81.0838371,50.7559618 81.1448239,50.7082261 81.2150262,50.6676508 C81.2850615,50.6270696 81.356921,50.5979721 81.435553,50.5752133 C81.4760636,50.5647699 81.4760636,50.5647699 81.4925561,50.5615016 C81.4952262,50.5609517 81.4952262,50.5609517 81.488608,50.5624144 C81.538182,50.5510986 81.5882413,50.5436938 81.6516369,50.5398063 C81.6303248,50.5417575 81.6251493,50.5421816 81.6214136,50.542593 C81.6400989,50.5399193 81.6585152,50.5387793 81.7074074,50.5357531 L89.0803427,50.5366159 C89.118563,50.5351731 89.118563,50.5351731 89.127037,50.5357531 L118.945185,50.5357531 C119.296255,50.5357531 119.620548,50.7229498 119.794391,51.0257185 C119.970651,51.3297509 119.970651,51.7047182 119.794838,52.0079778 L104.882113,77.8372278 C104.707153,78.1412783 104.382969,78.3285926 104.032099,78.3285926 C103.680998,78.3285926 103.356769,78.1413566 103.182127,77.8378585 L88.552046,52.498716 L83.4063987,52.498716 L103.9862,88.1437378 Z M80.8754131,50.9995253 C80.8941421,50.9703213 80.8990695,50.9636282 80.908836,50.952511 C80.9027423,50.9596657 80.8975474,50.967165 80.8754131,50.9995253 Z M80.908836,50.952511 C80.9104576,50.950665 80.9122127,50.9486971 80.9141865,50.9464839 C80.9145348,50.946078 80.914709,50.9458751 80.9147734,50.9458 C80.9122538,50.9486037 80.9105109,50.9505443 80.908836,50.952511 Z M81.6214136,50.542593 C81.6158723,50.5432033 81.6134988,50.5437858 81.6096062,50.5447409 C81.6169,50.5431842 81.6214464,50.5422139 81.6284723,50.5413495 Z M89.1503718,51.5350631 L89.2737249,51.7487094 L104.031938,77.3097761 L118.912778,51.5357523 L89.1503718,51.5350631 Z M81.7788163,51.5305927 C81.7816094,51.5301559 81.7835759,51.5296733 81.7862703,51.5290121 C81.7822673,51.5298665 81.7790918,51.5305443 81.7760717,51.5311206 Z M81.7110054,51.5365002 C81.7113132,51.5364205 81.7116256,51.5363395 81.7119426,51.5362574 C81.7114627,51.5363964 81.7110713,51.5365063 81.7107649,51.5365858 Z M81.7387285,51.5126458 C81.7388282,51.5125311 81.7388172,51.5125287 81.7388032,51.5125256 C81.7386444,51.5127051 81.7384896,51.51288 81.7383387,51.5130505 Z M81.6733719,51.5973584 C81.6733075,51.5974334 81.6733527,51.5973807 81.6734431,51.5972753 C81.6735326,51.5971763 81.6736215,51.5970779 81.6737098,51.5969801 Z M78.0003423,57.9746514 L63.119002,83.7480247 L92.8809988,83.7480247 L78.0003423,57.9746514 Z M40.9014264,45.0974799 L55.1777731,69.8243283 L69.4538113,45.0974799 L55.1777731,20.370323 L40.9014264,45.0974799 Z M38.9184868,45.5882534 C38.7430739,45.2845162 38.7430827,44.9097392 38.9184686,44.6067411 L54.0444791,18.4076757 L51.9678926,14.8108209 L34.4816737,45.0974802 L51.9679055,75.3838511 L54.044474,71.7872785 L38.9184868,45.5882534 Z M27.160905,45.0974806 L52.0138025,88.1440479 L76.8666989,45.0974823 L74.2935526,40.6406828 L71.4374058,45.5875837 L71.4264685,45.5812689 C71.4263811,45.5814927 71.4262937,45.5817168 71.4262062,45.5819411 L71.4370864,45.5882229 L52.8178327,77.8376075 C52.6424773,78.1412078 52.3185464,78.3282716 51.9679012,78.3282716 C51.6172561,78.3282716 51.2933252,78.1412078 51.1179259,77.8375315 L32.4987599,45.5882988 C32.3233209,45.2845536 32.3233209,44.9097543 32.498715,44.606742 L51.1179698,12.3570345 C51.2933252,12.0534341 51.6172561,11.8663704 51.9679012,11.8663704 C52.3185464,11.8663704 52.6424773,12.0534341 52.8178776,12.3571122 L70.5871134,43.134518 L73.1602551,38.6777265 L52.0138021,2.05060012 L27.160905,45.0974806 Z M70.5656955,45.09743 L70.1540978,44.3845174 L51.9679012,12.8849102 L33.3700867,45.0974811 L51.9679012,77.309732 L70.5043951,45.2036913 L70.5043951,45.2036035 L70.5656955,45.09743 Z M32.825483,7.40123457 L12.8186533,7.40123457 L22.8222158,24.7274888 L32.825483,7.40123457 Z M39.2452326,7.40123457 L35.0917642,7.40123457 L23.9555198,26.6901247 L26.0321055,30.2869781 L39.2452326,7.40123457 Z M155.962963,83.7563704 L155.5,83.7563704 L155.5,83.7934074 L155.962963,83.7934074 L155.981481,83.7748889 L155.962963,83.7563704 Z M152.304262,83.7563704 L152.261472,83.7563704 L152.282855,83.7934074 L152.325605,83.7934074 L152.293556,83.7378994 L152.272158,83.7749592 L152.293537,83.8119869 L152.314955,83.7748908 L152.304262,83.7563704 Z M155.5,89.365341 L155.566995,89.4813716 L155.529959,89.3431585 L155.5,89.2912717 L155.5,89.365341 Z M148.854396,89.694321 L148.710056,89.9443091 L148.774506,89.9071002 L148.897354,89.694321 L148.854396,89.694321 Z M148.319836,89.694321 L148.276867,89.694321 L148.399719,89.9071082 L148.464173,89.9443212 L148.319836,89.694321 Z M133.199168,63.5045305 L133.177778,63.4674807 L133.156331,63.5046271 L133.177722,63.5416772 L133.199168,63.5045305 Z M118.03572,89.694321 L117.891382,89.9443212 L117.955848,89.907102 L118.078695,89.694321 L118.03572,89.694321 Z M111.615967,89.694321 L111.47163,89.9443202 L111.536097,89.9071001 L111.658944,89.694321 L111.615967,89.694321 Z M129.967901,57.9820707 L129.983952,57.9542704 C129.980642,57.9600012 129.974529,57.9635309 129.967901,57.9635309 C129.961273,57.9635309 129.955161,57.9600012 129.951896,57.9543482 L129.967901,57.9820707 Z M0.5,89.694321 L0,89.694321 L0.5,90.194321 L0.5,89.694321 Z M0.5,45.0869877 L0.0206666667,45.0869877 L0.0103333333,45.097321 L0.0206666667,45.1076543 L0.5,45.1076543 L0.5,45.0869877 Z M0.5,11.9368444 L0.470655381,11.9876624 L0.43301116,12.1281508 L0.5,12.0121244 L0.5,11.9368444 Z M0.470054878,13.6910355 L0.5,13.7429006 L0.5,13.668813 L0.433010339,13.552786 L0.470054878,13.6910355 Z M11.1746402,32.2314321 L11.1960241,32.2684691 L11.2387173,32.2684691 L11.2173326,32.2314321 L11.1746402,32.2314321 Z M0.5,38.6508642 L0.037037037,38.6508642 L0.0185185185,38.6693827 L0.037037037,38.6879012 L0.5,38.6879012 L0.5,38.6508642 Z M0.5,32.2314321 L0.037037037,32.2314321 L0.0185185185,32.2499506 L0.037037037,32.2684691 L0.5,32.2684691 L0.5,32.2314321 Z M3.72085297,6.435012 C3.72074254,6.43513114 3.72063054,6.43524932 3.7205153,6.43536917 C3.72062798,6.43524761 3.72073979,6.43512697 3.72085075,6.43500726 Z M3.73984551,6.41419927 C3.7401478,6.41385292 3.74046606,6.41348804 3.74080476,6.41309972 L3.74436306,6.40897761 C3.74259535,6.41106427 3.74133413,6.41255304 3.73984551,6.41419927 Z M3.71512373,6.43919633 C3.71694136,6.43877113 3.71893912,6.4383035 3.72114436,6.4377873 C3.71612458,6.43898459 3.71338321,6.43962742 3.71189703,6.43997201 Z M3.78157906,6.43313768 C3.78695982,6.43217254 3.79158483,6.43103527 3.79841034,6.42935691 C3.79443082,6.43046473 3.79179539,6.43119839 3.78699778,6.43190135 Z M0.5,0.5 L0.5,-4.54747351e-13 L0,0.5 L0.5,0.5 Z M155.5,0.903096755 L155.530094,0.850971931 L155.566988,0.713283327 L155.5,0.829308968 L155.5,0.903096755 Z M155.732726,0.5 L155.830554,0.330554408 L155.796507,0.296507352 L155.5,0.467696746 L155.5,0.5 L155.732726,0.5 Z M155.5,45.1076543 L155.979333,45.1076543 L155.989667,45.097321 L155.979333,45.0869877 L155.5,45.0869877 L155.5,45.1076543 Z M153.993538,84.7563704 L156.5,89.097375 L156.5,90.694321 L155.155383,90.694321 L152.293556,85.7378043 L149.431728,90.694321 L147.742485,90.694321 L133.177778,65.4674822 L118.61307,90.694321 L116.786963,90.694321 L116.786963,90.194321 C116.786963,90.0224512 116.832048,89.8528788 116.918467,89.7039038 L132.044475,63.5045255 L129.967909,59.9079581 L112.193316,90.694321 L110.36721,90.694321 L110.36721,90.194321 C110.36721,90.0224512 110.412295,89.8528788 110.498715,89.7039025 L129.11797,57.454195 C129.293325,57.1505946 129.617256,56.9635309 129.967901,56.9635309 C130.318546,56.9635309 130.642477,57.1505946 130.817878,57.4542727 L148.587113,88.2316785 L151.160255,83.774887 L130.013801,47.1477579 L104.872231,90.694321 L-0.5,90.694321 L-0.5,87.3642078 L0.566750862,89.2131605 L50.2727611,89.2131605 L25.3736471,46.0869877 L-0.5,46.0869877 L-0.5,44.1076543 L24.332463,44.1076543 L3.70673237,8.3832913 L1.13331472,12.8398445 L15.7630178,38.1785654 C15.9384569,38.4823106 15.9384569,38.8571099 15.7630178,39.1602001 C15.5876625,39.4638004 15.2637316,39.6508642 14.9130864,39.6508642 L-0.5,39.6508642 L-0.5,37.6879012 L13.2131076,37.6879012 L10.6400007,33.2314321 L-0.5,33.2314321 L-0.5,31.2684691 L9.50668119,31.2684691 L-0.5,13.9367673 L-0.5,11.7441719 L-0.43301116,11.6281455 L2.8744193,5.90166225 C2.87814385,5.89645419 2.88130379,5.89203564 2.88402628,5.88823786 C2.91663841,5.8379179 2.95324912,5.79116006 2.99063106,5.75177645 C3.00118455,5.73954064 3.00258105,5.73814379 3.02779931,5.71291919 C3.08609239,5.65730626 3.14538556,5.61074094 3.21502621,5.57049027 C3.28506149,5.52990908 3.356921,5.5008116 3.43555302,5.47805284 C3.47414848,5.46812321 3.47414848,5.46812321 3.48834098,5.46534917 C3.49049269,5.46487012 3.49049269,5.46487012 3.48860802,5.46525393 C3.54740044,5.45183392 3.60687551,5.44391469 3.68846914,5.44083951 C3.64092206,5.44422137 3.62191209,5.44557348 3.61176427,5.44682322 C3.63249992,5.4435681 3.65371692,5.4420679 3.70740741,5.4382716 L11.1097037,5.4382716 C11.1180494,5.4382716 11.1180494,5.4382716 11.127037,5.4382716 L40.9451852,5.4382716 C41.2960555,5.4382716 41.6202395,5.62558594 41.7946252,5.92864098 C41.9706516,6.23292455 41.9706516,6.60789211 41.7948398,6.91049401 L26.8821131,32.7400673 C26.7071531,33.0441178 26.3829691,33.2314321 26.0320988,33.2314321 C25.6809977,33.2314321 25.3567685,33.0441961 25.1821256,32.7406957 L10.5520442,7.40123457 L5.4063912,7.40123457 L25.9862006,43.0468863 L50.2727631,0.981481481 L0.566750862,0.981481481 L-0.5,2.83043419 L-0.5,-0.5 L104.872232,-0.5 L130.013802,43.0468819 L155.155373,-0.5 L156.5,-0.5 L156.5,1.09725893 L131.667854,44.1076543 L156.5,44.1076543 L156.5,46.0869877 L131.66785,46.0869877 L152.860207,82.7934074 L156.5,82.7934074 L156.5,84.7563704 L153.993538,84.7563704 Z" id="Stroke-1" stroke="#FFFFFF"></path>
            <path d="M285.967908,30.2866867 L288.044475,26.6901164 L272.919796,0.49302475 C272.831992,0.342783931 272.786963,0.172447733 272.786963,0 L272.786963,-0.5 L274.612748,-0.5 L289.177773,24.7271585 L303.742483,-0.5 L306.008651,-0.5 L305.437517,0.490230917 L305.426688,0.483985159 C305.426604,0.484186911 305.42652,0.484388435 305.426436,0.484589734 L305.437087,0.490739507 L286.817833,32.740447 C286.642477,33.0440473 286.318546,33.2311111 285.967901,33.2311111 C285.617256,33.2311111 285.293325,33.0440473 285.117925,32.7403691 L266.500042,0.49302475 C266.412239,0.342783931 266.36721,0.172447733 266.36721,0 L266.36721,-0.5 L268.192994,-0.5 L285.967908,30.2866867 Z M300.804147,32.2684691 L300.825532,32.2314321 L300.782988,32.2314321 L300.761604,32.2684691 L300.804147,32.2684691 Z M311.5,13.7440561 L311.529365,13.6931985 L311.566986,13.5527918 L311.5,13.6688166 L311.5,13.7440561 Z M311.5,32.2684691 L311.962963,32.2684691 L311.981481,32.2499506 L311.962963,32.2314321 L311.5,32.2314321 L311.5,32.2684691 Z M311.5,38.6879012 L311.962963,38.6879012 L311.981481,38.6693827 L311.962963,38.6508642 L311.5,38.6508642 L311.5,38.6879012 Z M297.119002,38.6508642 L297.086914,38.6508642 C297.093542,38.6508642 297.099654,38.6543939 297.102919,38.6600468 C297.106309,38.6659025 297.106309,38.6728499 297.102919,38.6787186 L297.102955,38.6786556 L297.119002,38.6508642 Z M296.236961,38.1786025 L312.5,10.0122402 L312.5,13.9367637 L302.493626,31.2684691 L312.5,31.2684691 L312.5,33.2314321 L301.36032,33.2314321 L298.787213,37.6879012 L312.5,37.6879012 L312.5,39.6508642 L297.086914,39.6508642 C296.736268,39.6508642 296.412338,39.4638004 296.237216,39.1606047 C296.06155,38.8571222 296.061543,38.4823412 296.236961,38.1786025 Z M311.5,51.5437778 L311.962963,51.5437778 L311.981481,51.5252593 L311.962963,51.5067407 L311.5,51.5067407 L311.5,51.5437778 Z M300.761609,57.9264938 L300.782995,57.9635309 L300.825673,57.9635309 L300.804288,57.9264938 L300.761609,57.9264938 Z M311.5,57.9635309 L311.962963,57.9635309 L311.981481,57.9450123 L311.962963,57.9264938 L311.5,57.9264938 L311.5,57.9635309 Z M311.5,76.5248707 L311.566994,76.6409006 L311.530001,76.5028469 L311.5,76.4508874 L311.5,76.5248707 Z M297.119002,51.5437778 L297.102957,51.5159886 C297.10627,51.5217246 297.10627,51.5287939 297.102919,51.5345951 C297.099654,51.5402481 297.093542,51.5437778 297.086914,51.5437778 L297.119002,51.5437778 Z M298.786911,52.5067407 L301.360314,56.9635309 L312.5,56.9635309 L312.5,58.9264938 L302.493657,58.9264938 L312.5,76.2569071 L312.5,80.1827423 L311.566994,78.5668262 L296.236982,52.0160766 C296.061582,51.7123989 296.061582,51.3381197 296.236982,51.0344419 C296.412338,50.7308415 296.736268,50.5437778 297.086914,50.5437778 L312.5,50.5437778 L312.5,52.5067407 L298.786911,52.5067407 Z M301.360314,56.9635309 L301.504655,57.2135109 L301.071654,56.9635309 L301.360314,56.9635309 Z M159.696715,83.7934074 L159.739544,83.7934074 L159.718159,83.7563704 L159.675331,83.7563704 L159.696715,83.7934074 Z M156.5,78.1828303 L156.433003,78.0667989 L156.470004,78.2048767 L156.5,78.2568284 L156.5,78.1828303 Z M190.514734,83.7934074 L190.557538,83.7934074 L190.536154,83.7563704 L190.493351,83.7563704 L190.514734,83.7934074 Z M156.5,57.9264938 L156.037037,57.9264938 L156.018519,57.9450123 L156.037037,57.9635309 L156.5,57.9635309 L156.5,57.9264938 Z M175.601642,57.9635309 L175.612667,57.9635309 C175.605902,57.9635309 175.599492,57.9598274 175.595936,57.9536475 L175.601642,57.9635309 Z M156.5,51.5067407 L156.037037,51.5067407 L156.018519,51.5252593 L156.037037,51.5437778 L156.5,51.5437778 L156.5,51.5067407 Z M178.313988,51.5437778 L178.324691,51.5437778 C178.318266,51.5437778 178.311842,51.5400712 178.308453,51.5341915 L178.313988,51.5437778 Z M196.912776,83.7563704 L196.928819,83.7841566 C196.925733,83.7788349 196.925733,83.7709556 196.929029,83.7652583 C196.932011,83.7600739 196.93842,83.7563704 196.945185,83.7563704 L196.912776,83.7563704 Z M158.007419,82.7934074 L155.5,78.4507993 L155.5,74.5249494 L160.27405,82.7934074 L188.825474,82.7934074 L175.045697,58.9264938 L155.5,58.9264938 L155.5,56.9635309 L175.612667,56.9635309 C175.963537,56.9635309 176.287721,57.1508452 176.46232,57.454269 L191.092081,82.7934074 L195.245206,82.7934074 L177.75805,52.5067407 L155.5,52.5067407 L155.5,50.5437778 L178.324691,50.5437778 C178.675536,50.5437778 178.999577,50.7307248 179.174662,51.0345101 L197.794391,83.2833728 C197.970612,83.587338 197.970612,83.9617852 197.7952,84.2650056 C197.620239,84.569056 197.296056,84.7563704 196.945185,84.7563704 L190.526716,84.7563704 C190.526475,84.7563704 190.526475,84.7563704 190.526235,84.7563704 C190.525994,84.7563704 190.525994,84.7563704 190.525753,84.7563704 C190.525472,84.7563704 190.525472,84.7563704 190.525111,84.7563704 C190.52475,84.7563704 190.52475,84.7563704 190.524469,84.7563704 L159.716716,84.7563704 C159.714389,84.7563704 159.714389,84.7563704 159.712222,84.7563704 C159.710056,84.7563704 159.710056,84.7563704 159.707728,84.7563704 C159.70484,84.7563704 159.70484,84.7563704 159.701951,84.7563704 C159.700506,84.7563704 159.700506,84.7563704 159.699062,84.7563704 L155.5,84.7563704 L155.5,82.7934074 L158.007419,82.7934074 Z M223.360323,11.8663704 L253.612667,11.8663704 C253.963537,11.8663704 254.287721,12.0536847 254.46232,12.3571085 L269.092081,37.6962469 L273.24521,37.6962469 L255.758049,7.40925926 L220.786886,7.40925926 L223.360323,11.8663704 Z M253.045697,13.8293333 L224.493656,13.8293333 L238.274049,37.6962469 L266.825474,37.6962469 L253.045697,13.8293333 Z M234.56665,44.116 L284.272761,44.116 L259.373647,0.98982716 L209.66785,0.98982716 L230.860207,37.6962469 L236.007433,37.6962469 L218.237216,6.91899981 C218.061582,6.61557197 218.061582,6.24129254 218.237216,5.93655575 C218.412649,5.63347544 218.736467,5.4462963 219.086914,5.4462963 L256.324691,5.4462963 C256.675337,5.4462963 256.999267,5.63336006 257.174663,5.93703044 L275.794156,38.1858073 C275.970652,38.4895894 275.970652,38.8645569 275.794967,39.1682494 C275.619929,39.4717793 275.295857,39.6592099 274.945185,39.6592099 L268.526716,39.6592099 C268.526235,39.6592099 268.526235,39.6592099 268.525753,39.6592099 C268.525472,39.6592099 268.525472,39.6592099 268.525111,39.6592099 C268.52475,39.6592099 268.52475,39.6592099 268.524469,39.6592099 L237.716716,39.6592099 C237.714389,39.6592099 237.714389,39.6592099 237.712222,39.6592099 C237.710056,39.6592099 237.710056,39.6592099 237.707728,39.6592099 C237.703395,39.6592099 237.703395,39.6592099 237.699062,39.6592099 L231.993509,39.6592099 L234.56665,44.116 Z M237.718146,38.6592099 L268.524469,38.6592099 C268.52475,38.6592099 268.52475,38.6592099 268.525111,38.6592099 C268.525472,38.6592099 268.525472,38.6592099 268.525753,38.6592099 C268.526235,38.6592099 268.526235,38.6592099 268.526716,38.6592099 L274.912776,38.6592099 L256.313988,6.4462963 L219.119002,6.4462963 L237.718146,38.6592099 Z M244.640001,78.3285926 L223.36032,78.3285926 L220.787213,82.7850617 L247.213108,82.7850617 L244.640001,78.3285926 Z M224.493626,76.3656296 L243.506681,76.3656296 L234.000007,59.8999458 L224.493626,76.3656296 Z M269.091764,52.498716 L257.955525,71.7875975 L260.032093,75.3841697 L273.245227,52.498716 L269.091764,52.498716 Z M256.822216,69.8246621 L266.825476,52.498716 L246.818661,52.498716 L256.822216,69.8246621 Z M259.9862,88.1437378 L284.272757,46.078963 L234.56665,46.078963 L209.667854,89.2048148 L258.332459,89.2048148 L237.706721,53.4807475 L235.133319,57.9370124 L249.763018,83.2757259 C249.938418,83.5794036 249.938418,83.9536828 249.763018,84.2573606 C249.587662,84.5609609 249.263732,84.7480247 248.913086,84.7480247 L219.086914,84.7480247 C218.736268,84.7480247 218.412338,84.5609609 218.236982,84.2573606 C218.061582,83.9536828 218.061582,83.5794036 218.236946,83.2757889 L236.851497,51.0370678 C236.861447,51.0214114 236.869192,51.0092264 236.875413,50.9995253 C236.87412,51.0014162 236.872769,51.0033919 236.871356,51.0054575 C236.907586,50.9465846 236.949658,50.8917774 237.006545,50.8321009 C236.994166,50.8449656 236.994166,50.8449656 236.994234,50.8449806 C237.000425,50.8379841 237.000425,50.8379841 237.025641,50.8121511 C237.083837,50.7559618 237.144824,50.7082261 237.215026,50.6676508 C237.285061,50.6270696 237.356921,50.5979721 237.435553,50.5752133 C237.476064,50.5647699 237.476064,50.5647699 237.492556,50.5615016 C237.495226,50.5609517 237.495226,50.5609517 237.488608,50.5624144 C237.538182,50.5510986 237.588241,50.5436938 237.651637,50.5398063 C237.630325,50.5417575 237.625149,50.5421816 237.621414,50.542593 C237.640099,50.5399193 237.658515,50.5387793 237.707407,50.5357531 L245.080343,50.5366159 C245.118563,50.5351731 245.118563,50.5351731 245.127037,50.5357531 L274.945185,50.5357531 C275.296255,50.5357531 275.620548,50.7229498 275.794391,51.0257185 C275.970651,51.3297509 275.970651,51.7047182 275.794838,52.0079778 L260.882113,77.8372278 C260.707153,78.1412783 260.382969,78.3285926 260.032099,78.3285926 C259.680998,78.3285926 259.356769,78.1413566 259.182127,77.8378585 L244.552046,52.498716 L239.406399,52.498716 L259.9862,88.1437378 Z M236.875413,50.9995253 C236.894142,50.9703213 236.899069,50.9636282 236.908836,50.952511 C236.902742,50.9596657 236.897547,50.967165 236.875413,50.9995253 Z M236.908836,50.952511 C236.910458,50.950665 236.912213,50.9486971 236.914187,50.9464839 C236.914535,50.946078 236.914709,50.9458751 236.914773,50.9458 C236.912254,50.9486037 236.910511,50.9505443 236.908836,50.952511 Z M237.621414,50.542593 C237.615872,50.5432033 237.613499,50.5437858 237.609606,50.5447409 C237.6169,50.5431842 237.621446,50.5422139 237.628472,50.5413495 Z M245.150372,51.5350631 L245.273725,51.7487094 L260.031938,77.3097761 L274.912778,51.5357523 L245.150372,51.5350631 Z M237.778816,51.5305927 C237.781609,51.5301559 237.783576,51.5296733 237.78627,51.5290121 C237.782267,51.5298665 237.779092,51.5305443 237.776072,51.5311206 Z M237.711005,51.5365002 C237.711313,51.5364205 237.711626,51.5363395 237.711943,51.5362574 C237.711463,51.5363964 237.711071,51.5365063 237.710765,51.5365858 Z M237.738728,51.5126458 C237.738828,51.5125311 237.738817,51.5125287 237.738803,51.5125256 C237.738644,51.5127051 237.73849,51.51288 237.738339,51.5130505 Z M237.673372,51.5973584 C237.673308,51.5974334 237.673353,51.5973807 237.673443,51.5972753 C237.673533,51.5971763 237.673621,51.5970779 237.67371,51.5969801 Z M234.000342,57.9746514 L219.119002,83.7480247 L248.880999,83.7480247 L234.000342,57.9746514 Z M196.901426,45.0974799 L211.177773,69.8243283 L225.453811,45.0974799 L211.177773,20.370323 L196.901426,45.0974799 Z M194.918487,45.5882534 C194.743074,45.2845162 194.743083,44.9097392 194.918469,44.6067411 L210.044479,18.4076757 L207.967893,14.8108209 L190.481674,45.0974802 L207.967905,75.3838511 L210.044474,71.7872785 L194.918487,45.5882534 Z M183.160905,45.0974806 L208.013802,88.1440479 L232.866699,45.0974823 L230.293553,40.6406828 L227.437406,45.5875837 L227.426468,45.5812689 C227.426381,45.5814927 227.426294,45.5817168 227.426206,45.5819411 L227.437086,45.5882229 L208.817833,77.8376075 C208.642477,78.1412078 208.318546,78.3282716 207.967901,78.3282716 C207.617256,78.3282716 207.293325,78.1412078 207.117926,77.8375315 L188.49876,45.5882988 C188.323321,45.2845536 188.323321,44.9097543 188.498715,44.606742 L207.11797,12.3570345 C207.293325,12.0534341 207.617256,11.8663704 207.967901,11.8663704 C208.318546,11.8663704 208.642477,12.0534341 208.817878,12.3571122 L226.587113,43.134518 L229.160255,38.6777265 L208.013802,2.05060012 L183.160905,45.0974806 Z M226.565696,45.09743 L226.154098,44.3845174 L207.967901,12.8849102 L189.370087,45.0974811 L207.967901,77.309732 L226.504395,45.2036913 L226.504395,45.2036035 L226.565696,45.09743 Z M188.825483,7.40123457 L168.818653,7.40123457 L178.822216,24.7274888 L188.825483,7.40123457 Z M195.245233,7.40123457 L191.091764,7.40123457 L179.95552,26.6901247 L182.032105,30.2869781 L195.245233,7.40123457 Z M311.962963,83.7563704 L311.5,83.7563704 L311.5,83.7934074 L311.962963,83.7934074 L311.981481,83.7748889 L311.962963,83.7563704 Z M308.304262,83.7563704 L308.261472,83.7563704 L308.282855,83.7934074 L308.325605,83.7934074 L308.293556,83.7378994 L308.272158,83.7749592 L308.293537,83.8119869 L308.314955,83.7748908 L308.304262,83.7563704 Z M311.5,89.365341 L311.566995,89.4813716 L311.529959,89.3431585 L311.5,89.2912717 L311.5,89.365341 Z M304.854396,89.694321 L304.710056,89.9443091 L304.774506,89.9071002 L304.897354,89.694321 L304.854396,89.694321 Z M304.319836,89.694321 L304.276867,89.694321 L304.399719,89.9071082 L304.464173,89.9443212 L304.319836,89.694321 Z M289.199168,63.5045305 L289.177778,63.4674807 L289.156331,63.5046271 L289.177722,63.5416772 L289.199168,63.5045305 Z M274.03572,89.694321 L273.891382,89.9443212 L273.955848,89.907102 L274.078695,89.694321 L274.03572,89.694321 Z M267.615967,89.694321 L267.47163,89.9443202 L267.536097,89.9071001 L267.658944,89.694321 L267.615967,89.694321 Z M285.967901,57.9820707 L285.983952,57.9542704 C285.980642,57.9600012 285.974529,57.9635309 285.967901,57.9635309 C285.961273,57.9635309 285.955161,57.9600012 285.951896,57.9543482 L285.967901,57.9820707 Z M156.5,89.694321 L156,89.694321 L156.5,90.194321 L156.5,89.694321 Z M156.470055,13.6910355 L156.5,13.7429006 L156.5,13.668813 L156.43301,13.552786 L156.470055,13.6910355 Z M156.5,32.2314321 L156.037037,32.2314321 L156.018519,32.2499506 L156.037037,32.2684691 L156.5,32.2684691 L156.5,32.2314321 Z M159.720853,6.435012 C159.720743,6.43513114 159.720631,6.43524932 159.720515,6.43536917 C159.720628,6.43524761 159.72074,6.43512697 159.720851,6.43500726 Z M159.739846,6.41419927 C159.740148,6.41385292 159.740466,6.41348804 159.740805,6.41309972 L159.744363,6.40897761 C159.742595,6.41106427 159.741334,6.41255304 159.739846,6.41419927 Z M159.710779,6.43942159 C159.711084,6.43934236 159.71147,6.43923369 159.711943,6.43909695 C159.711618,6.43918092 159.711297,6.43926379 159.710981,6.43934558 Z M159.781579,6.43313768 C159.78696,6.43217254 159.791585,6.43103527 159.79841,6.42935691 C159.794431,6.43046473 159.791795,6.43119839 159.786998,6.43190135 Z M156.5,0.5 L156.5,0 L156,0.5 L156.5,0.5 Z M311.5,0.903096755 L311.530094,0.850971931 L311.566988,0.713283327 L311.5,0.829308968 L311.5,0.903096755 Z M311.732726,0.5 L311.830554,0.330554408 L311.796507,0.296507352 L311.5,0.467696746 L311.5,0.5 L311.732726,0.5 Z M311.5,45.1076543 L311.979333,45.1076543 L311.989667,45.097321 L311.979333,45.0869877 L311.5,45.0869877 L311.5,45.1076543 Z M309.993538,84.7563704 L312.5,89.097375 L312.5,90.694321 L311.155383,90.694321 L308.293556,85.7378043 L305.431728,90.694321 L303.742485,90.694321 L289.177778,65.4674822 L274.61307,90.694321 L272.786963,90.694321 L272.786963,90.194321 C272.786963,90.0224512 272.832048,89.8528788 272.918467,89.7039038 L288.044475,63.5045255 L285.967909,59.9079581 L268.193316,90.694321 L266.36721,90.694321 L266.36721,90.194321 C266.36721,90.0224512 266.412295,89.8528788 266.498715,89.7039025 L285.11797,57.454195 C285.293325,57.1505946 285.617256,56.9635309 285.967901,56.9635309 C286.318546,56.9635309 286.642477,57.1505946 286.817878,57.4542727 L304.587113,88.2316785 L307.160255,83.774887 L286.013801,47.1477579 L260.872231,90.694321 L155.5,90.694321 L155.5,87.3642078 L156.566751,89.2131605 L206.272761,89.2131605 L181.373647,46.0869877 L155.5,46.0869877 L155.5,44.1076543 L180.332463,44.1076543 L159.706732,8.3832913 L157.133315,12.8398445 L171.763018,38.1785654 C171.938457,38.4823106 171.938457,38.8571099 171.763018,39.1602001 C171.587662,39.4638004 171.263732,39.6508642 170.913086,39.6508642 L155.5,39.6508642 L155.5,37.6879012 L169.213108,37.6879012 L166.640001,33.2314321 L155.5,33.2314321 L155.5,31.2684691 L165.506681,31.2684691 L155.5,13.9367673 L155.5,11.7441719 L155.566989,11.6281455 L158.874419,5.90166225 C158.878144,5.89645419 158.881304,5.89203564 158.884026,5.88823786 C158.916638,5.8379179 158.953249,5.79116006 158.990631,5.75177645 C159.001185,5.73954064 159.002581,5.73814379 159.027799,5.71291919 C159.086092,5.65730626 159.145386,5.61074094 159.215026,5.57049027 C159.285061,5.52990908 159.356921,5.5008116 159.435553,5.47805284 C159.474148,5.46812321 159.474148,5.46812321 159.488341,5.46534917 C159.490493,5.46487012 159.490493,5.46487012 159.488608,5.46525393 C159.5474,5.45183392 159.606876,5.44391469 159.688469,5.44083951 C159.640922,5.44422137 159.621912,5.44557348 159.611764,5.44682322 C159.6325,5.4435681 159.653717,5.4420679 159.707407,5.4382716 L167.109704,5.4382716 C167.118049,5.4382716 167.118049,5.4382716 167.127037,5.4382716 L196.945185,5.4382716 C197.296056,5.4382716 197.620239,5.62558594 197.794625,5.92864098 C197.970652,6.23292455 197.970652,6.60789211 197.79484,6.91049401 L182.882113,32.7400673 C182.707153,33.0441178 182.382969,33.2314321 182.032099,33.2314321 C181.680998,33.2314321 181.356769,33.0441961 181.182126,32.7406957 L166.552044,7.40123457 L161.406391,7.40123457 L181.986201,43.0468863 L206.272763,0.981481481 L156.566751,0.981481481 L155.5,2.83043419 L155.5,-0.5 L260.872232,-0.5 L286.013802,43.0468819 L311.155373,-0.5 L312.5,-0.5 L312.5,1.09725893 L287.667854,44.1076543 L312.5,44.1076543 L312.5,46.0869877 L287.66785,46.0869877 L308.860207,82.7934074 L312.5,82.7934074 L312.5,84.7563704 L309.993538,84.7563704 Z" id="Stroke-1" stroke="#FFFFFF"></path>
            <path d="M441.967908,30.2866867 L444.044475,26.6901164 L428.919796,0.49302475 C428.831992,0.342783931 428.786963,0.172447733 428.786963,0 L428.786963,-0.5 L430.612748,-0.5 L445.177773,24.7271585 L459.742483,-0.5 L462.008651,-0.5 L461.437517,0.490230917 L461.426688,0.483985159 C461.426604,0.484186911 461.42652,0.484388435 461.426436,0.484589734 L461.437087,0.490739507 L442.817833,32.740447 C442.642477,33.0440473 442.318546,33.2311111 441.967901,33.2311111 C441.617256,33.2311111 441.293325,33.0440473 441.117925,32.7403691 L422.500042,0.49302475 C422.412239,0.342783931 422.36721,0.172447733 422.36721,0 L422.36721,-0.5 L424.192994,-0.5 L441.967908,30.2866867 Z M456.804147,32.2684691 L456.825532,32.2314321 L456.782988,32.2314321 L456.761604,32.2684691 L456.804147,32.2684691 Z M467.5,13.7440561 L467.529365,13.6931985 L467.566986,13.5527918 L467.5,13.6688166 L467.5,13.7440561 Z M467.5,32.2684691 L467.962963,32.2684691 L467.981481,32.2499506 L467.962963,32.2314321 L467.5,32.2314321 L467.5,32.2684691 Z M467.5,38.6879012 L467.962963,38.6879012 L467.981481,38.6693827 L467.962963,38.6508642 L467.5,38.6508642 L467.5,38.6879012 Z M453.119002,38.6508642 L453.086914,38.6508642 C453.093542,38.6508642 453.099654,38.6543939 453.102919,38.6600468 C453.106309,38.6659025 453.106309,38.6728499 453.102919,38.6787186 L453.102955,38.6786556 L453.119002,38.6508642 Z M452.236961,38.1786025 L468.5,10.0122402 L468.5,13.9367637 L458.493626,31.2684691 L468.5,31.2684691 L468.5,33.2314321 L457.36032,33.2314321 L454.787213,37.6879012 L468.5,37.6879012 L468.5,39.6508642 L453.086914,39.6508642 C452.736268,39.6508642 452.412338,39.4638004 452.237216,39.1606047 C452.06155,38.8571222 452.061543,38.4823412 452.236961,38.1786025 Z M467.5,51.5437778 L467.962963,51.5437778 L467.981481,51.5252593 L467.962963,51.5067407 L467.5,51.5067407 L467.5,51.5437778 Z M456.761609,57.9264938 L456.782995,57.9635309 L456.825673,57.9635309 L456.804288,57.9264938 L456.761609,57.9264938 Z M467.5,57.9635309 L467.962963,57.9635309 L467.981481,57.9450123 L467.962963,57.9264938 L467.5,57.9264938 L467.5,57.9635309 Z M467.5,76.5248707 L467.566994,76.6409006 L467.530001,76.5028469 L467.5,76.4508874 L467.5,76.5248707 Z M453.119002,51.5437778 L453.102957,51.5159886 C453.10627,51.5217246 453.10627,51.5287939 453.102919,51.5345951 C453.099654,51.5402481 453.093542,51.5437778 453.086914,51.5437778 L453.119002,51.5437778 Z M454.786911,52.5067407 L457.360314,56.9635309 L468.5,56.9635309 L468.5,58.9264938 L458.493657,58.9264938 L468.5,76.2569071 L468.5,80.1827423 L467.566994,78.5668262 L452.236982,52.0160766 C452.061582,51.7123989 452.061582,51.3381197 452.236982,51.0344419 C452.412338,50.7308415 452.736268,50.5437778 453.086914,50.5437778 L468.5,50.5437778 L468.5,52.5067407 L454.786911,52.5067407 Z M312.5,83.7563704 L312.037037,83.7563704 L312.018519,83.7748889 L312.037037,83.7934074 L312.5,83.7934074 L312.5,83.7563704 Z M315.696715,83.7934074 L315.739544,83.7934074 L315.718159,83.7563704 L315.675331,83.7563704 L315.696715,83.7934074 Z M312.5,78.1828303 L312.433003,78.0667989 L312.470004,78.2048767 L312.5,78.2568284 L312.5,78.1828303 Z M346.514734,83.7934074 L346.557538,83.7934074 L346.536154,83.7563704 L346.493351,83.7563704 L346.514734,83.7934074 Z M312.5,57.9264938 L312.037037,57.9264938 L312.018519,57.9450123 L312.037037,57.9635309 L312.5,57.9635309 L312.5,57.9264938 Z M331.601642,57.9635309 L331.612667,57.9635309 C331.605902,57.9635309 331.599492,57.9598274 331.595936,57.9536475 L331.601642,57.9635309 Z M312.5,51.5067407 L312.037037,51.5067407 L312.018519,51.5252593 L312.037037,51.5437778 L312.5,51.5437778 L312.5,51.5067407 Z M334.313988,51.5437778 L334.324691,51.5437778 C334.318266,51.5437778 334.311842,51.5400712 334.308453,51.5341915 L334.313988,51.5437778 Z M352.912776,83.7563704 L352.928819,83.7841566 C352.925733,83.7788349 352.925733,83.7709556 352.929029,83.7652583 C352.932011,83.7600739 352.93842,83.7563704 352.945185,83.7563704 L352.912776,83.7563704 Z M314.007419,82.7934074 L311.5,78.4507993 L311.5,74.5249494 L316.27405,82.7934074 L344.825474,82.7934074 L331.045697,58.9264938 L311.5,58.9264938 L311.5,56.9635309 L331.612667,56.9635309 C331.963537,56.9635309 332.287721,57.1508452 332.46232,57.454269 L347.092081,82.7934074 L351.245206,82.7934074 L333.75805,52.5067407 L311.5,52.5067407 L311.5,50.5437778 L334.324691,50.5437778 C334.675536,50.5437778 334.999577,50.7307248 335.174662,51.0345101 L353.794391,83.2833728 C353.970612,83.587338 353.970612,83.9617852 353.7952,84.2650056 C353.620239,84.569056 353.296056,84.7563704 352.945185,84.7563704 L346.526716,84.7563704 C346.526235,84.7563704 346.526235,84.7563704 346.525753,84.7563704 C346.525472,84.7563704 346.525472,84.7563704 346.525111,84.7563704 C346.52475,84.7563704 346.52475,84.7563704 346.524469,84.7563704 L315.716716,84.7563704 C315.714389,84.7563704 315.714389,84.7563704 315.712222,84.7563704 C315.710056,84.7563704 315.710056,84.7563704 315.707728,84.7563704 C315.703395,84.7563704 315.703395,84.7563704 315.699062,84.7563704 L311.5,84.7563704 L311.5,82.7934074 L314.007419,82.7934074 Z M379.360323,11.8663704 L409.612667,11.8663704 C409.963537,11.8663704 410.287721,12.0536847 410.46232,12.3571085 L425.092081,37.6962469 L429.24521,37.6962469 L411.758049,7.40925926 L376.786886,7.40925926 L379.360323,11.8663704 Z M409.045697,13.8293333 L380.493656,13.8293333 L394.274049,37.6962469 L422.825474,37.6962469 L409.045697,13.8293333 Z M390.56665,44.116 L440.272761,44.116 L415.373647,0.98982716 L365.66785,0.98982716 L386.860207,37.6962469 L392.007433,37.6962469 L374.237216,6.91899981 C374.061582,6.61557197 374.061582,6.24129254 374.237216,5.93655575 C374.412649,5.63347544 374.736467,5.4462963 375.086914,5.4462963 L412.324691,5.4462963 C412.675337,5.4462963 412.999267,5.63336006 413.174663,5.93703044 L431.794156,38.1858073 C431.970652,38.4895894 431.970652,38.8645569 431.794967,39.1682494 C431.619929,39.4717793 431.295857,39.6592099 430.945185,39.6592099 L424.526716,39.6592099 C424.526235,39.6592099 424.526235,39.6592099 424.525753,39.6592099 C424.525472,39.6592099 424.525472,39.6592099 424.525111,39.6592099 C424.52475,39.6592099 424.52475,39.6592099 424.524469,39.6592099 L393.716716,39.6592099 C393.714389,39.6592099 393.714389,39.6592099 393.712222,39.6592099 C393.710056,39.6592099 393.710056,39.6592099 393.707728,39.6592099 C393.705562,39.6592099 393.705562,39.6592099 393.703395,39.6592099 C393.701228,39.6592099 393.701228,39.6592099 393.699062,39.6592099 L387.993509,39.6592099 L390.56665,44.116 Z M393.718146,38.6592099 L424.524469,38.6592099 C424.52475,38.6592099 424.52475,38.6592099 424.525111,38.6592099 C424.525472,38.6592099 424.525472,38.6592099 424.525753,38.6592099 C424.526235,38.6592099 424.526235,38.6592099 424.526716,38.6592099 L430.912776,38.6592099 L412.313988,6.4462963 L375.119002,6.4462963 L393.718146,38.6592099 Z M400.640001,78.3285926 L379.36032,78.3285926 L376.787213,82.7850617 L403.213108,82.7850617 L400.640001,78.3285926 Z M380.493626,76.3656296 L399.506681,76.3656296 L390.000007,59.8999458 L380.493626,76.3656296 Z M425.091764,52.498716 L413.955525,71.7875975 L416.032093,75.3841697 L429.245227,52.498716 L425.091764,52.498716 Z M412.822216,69.8246621 L422.825476,52.498716 L402.818661,52.498716 L412.822216,69.8246621 Z M415.9862,88.1437378 L440.272757,46.078963 L390.56665,46.078963 L365.667854,89.2048148 L414.332459,89.2048148 L393.706721,53.4807475 L391.133319,57.9370124 L405.763018,83.2757259 C405.938418,83.5794036 405.938418,83.9536828 405.763018,84.2573606 C405.587662,84.5609609 405.263732,84.7480247 404.913086,84.7480247 L375.086914,84.7480247 C374.736268,84.7480247 374.412338,84.5609609 374.236982,84.2573606 C374.061582,83.9536828 374.061582,83.5794036 374.236946,83.2757889 L392.851497,51.0370678 C392.861447,51.0214114 392.869192,51.0092264 392.875413,50.9995253 C392.87412,51.0014162 392.872769,51.0033919 392.871356,51.0054575 C392.907586,50.9465846 392.949658,50.8917774 393.006545,50.8321009 C392.994166,50.8449656 392.994166,50.8449656 392.994234,50.8449806 C393.000425,50.8379841 393.000425,50.8379841 393.025641,50.8121511 C393.083837,50.7559618 393.144824,50.7082261 393.215026,50.6676508 C393.285061,50.6270696 393.356921,50.5979721 393.435553,50.5752133 C393.476064,50.5647699 393.476064,50.5647699 393.492556,50.5615016 C393.495226,50.5609517 393.495226,50.5609517 393.488608,50.5624144 C393.538182,50.5510986 393.588241,50.5436938 393.651637,50.5398063 C393.630325,50.5417575 393.625149,50.5421816 393.621414,50.542593 C393.640099,50.5399193 393.658515,50.5387793 393.707407,50.5357531 L401.080343,50.5366159 C401.118563,50.5351731 401.118563,50.5351731 401.127037,50.5357531 L430.945185,50.5357531 C431.296255,50.5357531 431.620548,50.7229498 431.794391,51.0257185 C431.970651,51.3297509 431.970651,51.7047182 431.794838,52.0079778 L416.882113,77.8372278 C416.707153,78.1412783 416.382969,78.3285926 416.032099,78.3285926 C415.680998,78.3285926 415.356769,78.1413566 415.182127,77.8378585 L400.552046,52.498716 L395.406399,52.498716 L415.9862,88.1437378 Z M392.908836,50.952511 C392.910458,50.950665 392.912213,50.9486971 392.914187,50.9464839 C392.914535,50.946078 392.914709,50.9458751 392.914773,50.9458 C392.912254,50.9486037 392.910511,50.9505443 392.908836,50.952511 Z M393.621414,50.542593 C393.615872,50.5432033 393.613499,50.5437858 393.609606,50.5447409 C393.6169,50.5431842 393.621446,50.5422139 393.628472,50.5413495 Z M401.150372,51.5350631 L401.273725,51.7487094 L416.031938,77.3097761 L430.912778,51.5357523 L401.150372,51.5350631 Z M393.778816,51.5305927 C393.781609,51.5301559 393.783576,51.5296733 393.78627,51.5290121 C393.782267,51.5298665 393.779092,51.5305443 393.776072,51.5311206 Z M393.711005,51.5365002 C393.711313,51.5364205 393.711626,51.5363395 393.711943,51.5362574 C393.711463,51.5363964 393.711071,51.5365063 393.710765,51.5365858 Z M393.738728,51.5126458 C393.738828,51.5125311 393.738817,51.5125287 393.738803,51.5125256 C393.738644,51.5127051 393.73849,51.51288 393.738339,51.5130505 Z M393.673372,51.5973584 C393.673308,51.5974334 393.673353,51.5973807 393.673443,51.5972753 C393.673533,51.5971763 393.673621,51.5970779 393.67371,51.5969801 Z M390.000342,57.9746514 L375.119002,83.7480247 L404.880999,83.7480247 L390.000342,57.9746514 Z M352.901426,45.0974799 L367.177773,69.8243283 L381.453811,45.0974799 L367.177773,20.370323 L352.901426,45.0974799 Z M350.918487,45.5882535 C350.743074,45.2845163 350.743083,44.9097392 350.918469,44.6067411 L366.044479,18.4076757 L363.967893,14.8108209 L346.481674,45.0974802 L363.967905,75.3838511 L366.044474,71.7872785 L350.918487,45.5882535 Z M350.918487,45.5882535 L350.918469,45.5882219 L350.918513,45.5882988 C350.918504,45.5882837 350.918496,45.5882686 350.918487,45.5882535 Z M339.160905,45.0974806 L364.013802,88.1440479 L388.866699,45.0974823 L386.293553,40.6406828 L383.437406,45.5875837 L383.426468,45.5812689 C383.426381,45.5814927 383.426294,45.5817168 383.426206,45.5819411 L383.437086,45.5882229 L364.817833,77.8376075 C364.642477,78.1412078 364.318546,78.3282716 363.967901,78.3282716 C363.617256,78.3282716 363.293325,78.1412078 363.117926,77.8375315 L344.49876,45.5882988 C344.323321,45.2845536 344.323321,44.9097543 344.498715,44.606742 L363.11797,12.3570345 C363.293325,12.0534341 363.617256,11.8663704 363.967901,11.8663704 C364.318546,11.8663704 364.642477,12.0534341 364.817878,12.3571122 L382.587113,43.134518 L385.160255,38.6777265 L364.013802,2.05060012 L339.160905,45.0974806 Z M382.565696,45.09743 L382.154098,44.3845174 L363.967901,12.8849102 L345.370087,45.0974811 L363.967901,77.309732 L382.504395,45.2036913 L382.504395,45.2036035 L382.565696,45.09743 Z M344.825483,7.40123457 L324.818653,7.40123457 L334.822216,24.7274888 L344.825483,7.40123457 Z M351.245233,7.40123457 L347.091764,7.40123457 L335.95552,26.6901247 L338.032105,30.2869781 L351.245233,7.40123457 Z M467.962963,83.7563704 L467.5,83.7563704 L467.5,83.7934074 L467.962963,83.7934074 L467.981481,83.7748889 L467.962963,83.7563704 Z M464.304262,83.7563704 L464.261472,83.7563704 L464.282855,83.7934074 L464.325605,83.7934074 L464.293556,83.7378994 L464.272158,83.7749592 L464.293537,83.8119869 L464.314955,83.7748908 L464.304262,83.7563704 Z M467.5,89.365341 L467.566995,89.4813716 L467.529959,89.3431585 L467.5,89.2912717 L467.5,89.365341 Z M460.854396,89.694321 L460.710056,89.9443091 L460.774506,89.9071002 L460.897354,89.694321 L460.854396,89.694321 Z M460.319836,89.694321 L460.276867,89.694321 L460.399719,89.9071082 L460.464173,89.9443212 L460.319836,89.694321 Z M445.199168,63.5045305 L445.177778,63.4674807 L445.156331,63.5046271 L445.177722,63.5416772 L445.199168,63.5045305 Z M441.967901,57.9820707 L441.983952,57.9542704 C441.980642,57.9600012 441.974529,57.9635309 441.967901,57.9635309 C441.961273,57.9635309 441.955161,57.9600012 441.951896,57.9543482 L441.967901,57.9820707 Z M312.5,89.694321 L312,89.694321 L312.5,90.194321 L312.5,89.694321 Z M312.5,45.0869877 L312.020667,45.0869877 L312.010333,45.097321 L312.020667,45.1076543 L312.5,45.1076543 L312.5,45.0869877 Z M312.5,11.9368444 L312.470655,11.9876624 L312.433011,12.1281508 L312.5,12.0121244 L312.5,11.9368444 Z M312.470055,13.6910355 L312.5,13.7429006 L312.5,13.668813 L312.43301,13.552786 L312.470055,13.6910355 Z M323.17464,32.2314321 L323.196024,32.2684691 L323.238717,32.2684691 L323.217333,32.2314321 L323.17464,32.2314321 Z M326.880999,38.6508642 L326.89704,38.6786469 C326.893691,38.6728499 326.893691,38.6659025 326.897315,38.6596422 C326.900346,38.6543939 326.906458,38.6508642 326.913086,38.6508642 L326.880999,38.6508642 Z M315.720853,6.435012 C315.720743,6.43513114 315.720631,6.43524932 315.720515,6.43536917 C315.720628,6.43524761 315.72074,6.43512697 315.720851,6.43500726 Z M315.739846,6.41419927 C315.740148,6.41385292 315.740466,6.41348804 315.740805,6.41309972 L315.744363,6.40897761 C315.742595,6.41106427 315.741334,6.41255304 315.739846,6.41419927 Z M315.710779,6.43942159 C315.711084,6.43934236 315.71147,6.43923369 315.711943,6.43909695 C315.711618,6.43918092 315.711297,6.43926379 315.710981,6.43934558 Z M315.781579,6.43313768 C315.78696,6.43217254 315.791585,6.43103527 315.79841,6.42935691 C315.794431,6.43046473 315.791795,6.43119839 315.786998,6.43190135 Z M312.5,0.5 L312.5,0 L312,0.5 L312.5,0.5 Z M467.5,0.903096755 L467.530094,0.850971931 L467.566988,0.713283327 L467.5,0.829308968 L467.5,0.903096755 Z M467.732726,0.5 L467.830554,0.330554408 L467.796507,0.296507352 L467.5,0.467696746 L467.5,0.5 L467.732726,0.5 Z M467.5,45.1076543 L467.979333,45.1076543 L467.989667,45.097321 L467.979333,45.0869877 L467.5,45.0869877 L467.5,45.1076543 Z M465.993538,84.7563704 L468.5,89.097375 L468.5,90.694321 L467.155383,90.694321 L464.293556,85.7378043 L461.431728,90.694321 L459.742485,90.694321 L445.177778,65.4674822 L430.61307,90.694321 L428.786963,90.694321 L428.786963,90.194321 C428.786963,90.0224512 428.832048,89.8528788 428.918467,89.7039038 L444.044475,63.5045255 L441.967909,59.9079581 L424.193316,90.694321 L422.36721,90.694321 L422.36721,90.194321 C422.36721,90.0224512 422.412295,89.8528788 422.498715,89.7039025 L441.11797,57.454195 C441.293325,57.1505946 441.617256,56.9635309 441.967901,56.9635309 C442.318546,56.9635309 442.642477,57.1505946 442.817878,57.4542727 L460.587113,88.2316785 L463.160255,83.774887 L442.013801,47.1477579 L416.872231,90.694321 L311.5,90.694321 L311.5,87.3642078 L312.566751,89.2131605 L362.272761,89.2131605 L337.373647,46.0869877 L311.5,46.0869877 L311.5,44.1076543 L336.332463,44.1076543 L315.706732,8.3832913 L313.133315,12.8398445 L327.763018,38.1785654 C327.938457,38.4823106 327.938457,38.8571099 327.763018,39.1602001 C327.587662,39.4638004 327.263732,39.6508642 326.913086,39.6508642 L311.5,39.6508642 L311.5,37.6879012 L325.213108,37.6879012 L322.640001,33.2314321 L311.5,33.2314321 L311.5,31.2684691 L321.506681,31.2684691 L311.5,13.9367673 L311.5,11.7441719 L311.566989,11.6281455 L314.874419,5.90166225 C314.878144,5.89645419 314.881304,5.89203564 314.884026,5.88823786 C314.916638,5.8379179 314.953249,5.79116006 314.990631,5.75177645 C315.001185,5.73954064 315.002581,5.73814379 315.027799,5.71291919 C315.086092,5.65730626 315.145386,5.61074094 315.215026,5.57049027 C315.285061,5.52990908 315.356921,5.5008116 315.435553,5.47805284 C315.474148,5.46812321 315.474148,5.46812321 315.488341,5.46534917 C315.490493,5.46487012 315.490493,5.46487012 315.488608,5.46525393 C315.5474,5.45183392 315.606876,5.44391469 315.688469,5.44083951 C315.640922,5.44422137 315.621912,5.44557348 315.611764,5.44682322 C315.6325,5.4435681 315.653717,5.4420679 315.707407,5.4382716 L323.109704,5.4382716 C323.118049,5.4382716 323.118049,5.4382716 323.127037,5.4382716 L352.945185,5.4382716 C353.296056,5.4382716 353.620239,5.62558594 353.794625,5.92864098 C353.970652,6.23292455 353.970652,6.60789211 353.79484,6.91049401 L338.882113,32.7400673 C338.707153,33.0441178 338.382969,33.2314321 338.032099,33.2314321 C337.680998,33.2314321 337.356769,33.0441961 337.182126,32.7406957 L322.552044,7.40123457 L317.406391,7.40123457 L337.986201,43.0468863 L362.272763,0.981481481 L312.566751,0.981481481 L311.5,2.83043419 L311.5,-0.5 L416.872232,-0.5 L442.013802,43.0468819 L467.155373,-0.5 L468.5,-0.5 L468.5,1.09725893 L443.667854,44.1076543 L468.5,44.1076543 L468.5,46.0869877 L443.66785,46.0869877 L464.860207,82.7934074 L468.5,82.7934074 L468.5,84.7563704 L465.993538,84.7563704 Z" id="Stroke-1" stroke="#FFFFFF"></path>
        </g>
    </g>
</svg>