<?xml version="1.0" encoding="UTF-8"?>
<svg width="459px" height="645px" viewBox="0 0 459 645" version="1.1" xmlns="http://www.w3.org/2000/svg" xmlns:xlink="http://www.w3.org/1999/xlink">
    <!-- Generator: Sketch 52.6 (67491) - http://www.bohemiancoding.com/sketch -->
    <title>Group 14</title>
    <desc>Created with Sketch.</desc>
    <defs>
        <polygon id="path-1" points="0.000765136876 0.539465731 342.19293 0.539465731 342.19293 53.6654682 0.000765136876 53.6654682"></polygon>
        <linearGradient x1="-0.00383022774%" y1="49.9949295%" x2="99.9937026%" y2="49.9949295%" id="linearGradient-3">
            <stop stop-color="#5850FF" offset="0%"></stop>
            <stop stop-color="#5753FF" offset="1.451594%"></stop>
            <stop stop-color="#4B81F9" offset="24.43%"></stop>
            <stop stop-color="#41A5F4" offset="46.43%"></stop>
            <stop stop-color="#3ABFF1" offset="66.94%"></stop>
            <stop stop-color="#35CEEF" offset="85.39%"></stop>
            <stop stop-color="#34D4EE" offset="100%"></stop>
        </linearGradient>
        <polygon id="path-4" points="0.69142869 0.914874648 342.357945 0.914874648 342.357945 430.782942 0.69142869 430.782942"></polygon>
    </defs>
    <g id="DevKit-" stroke="none" stroke-width="1" fill="none" fill-rule="evenodd">
        <g id="4.1-Error-V2" transform="translate(-121.000000, -189.000000)">
            <g id="Group-14" transform="translate(129.000000, 197.000000)">
                <g id="Group-4" transform="translate(49.644928, 177.655779)">
                    <g id="Group-19" transform="translate(2.550456, 57.175963)" stroke="#5967AF">
                        <path d="M335.547971,75.4385709 C335.547971,83.8206059 328.766308,90.6182319 320.400812,90.6182319 C312.032765,90.6182319 305.251102,83.8206059 305.251102,75.4385709 C305.251102,67.0565358 312.032765,60.2614654 320.400812,60.2614654 C328.766308,60.2614654 335.547971,67.0565358 335.547971,75.4385709 Z" id="Stroke-1" stroke-width="4.75200007"></path>
                        <path d="M328.606395,225.327246 L328.606395,248.094182" id="Stroke-3" stroke-width="4.75200007" stroke-linecap="round" stroke-linejoin="round"></path>
                        <path d="M339.967657,236.711992 L317.245642,236.711992" id="Stroke-5" stroke-width="4.75200007" stroke-linecap="round" stroke-linejoin="round"></path>
                        <path d="M220.671596,213.313336 C220.671596,219.94741 215.300335,225.326735 208.679351,225.326735 C202.058366,225.326735 196.687106,219.94741 196.687106,213.313336 C196.687106,206.676707 202.058366,201.294827 208.679351,201.294827 C215.300335,201.294827 220.671596,206.676707 220.671596,213.313336 Z" id="Stroke-7" stroke-width="3.76160006"></path>
                        <path d="M3.89021092,238.8259 L17.0811707,257.363486" id="Stroke-9" stroke-width="4.75200007" stroke-linecap="round" stroke-linejoin="round"></path>
                        <path d="M19.7359406,241.483618 L1.23748137,254.705768" id="Stroke-11" stroke-width="4.75200007" stroke-linecap="round" stroke-linejoin="round"></path>
                        <path d="M81.0514594,363.623669 C81.0514594,372.005704 74.2672457,378.800774 65.9042997,378.800774 C57.5362527,378.800774 50.7545895,372.005704 50.7545895,363.623669 C50.7545895,355.241634 57.5362527,348.446563 65.9042997,348.446563 C74.2672457,348.446563 81.0514594,355.241634 81.0514594,363.623669 Z" id="Stroke-13" stroke-width="4.75200007"></path>
                        <path d="M76.0849559,0.448234435 L95.4174143,27.6080724" id="Stroke-15" stroke-width="6.9632001" stroke-linecap="round" stroke-linejoin="round"></path>
                        <path d="M99.3032895,4.34153638 L72.1970404,23.7147704" id="Stroke-17" stroke-width="6.9632001" stroke-linecap="round" stroke-linejoin="round"></path>
                    </g>
                    <g id="Group-51" transform="translate(20.403650, 105.730434)">
                        <polygon id="Fill-1" fill="#FEFEFE" points="314.014724 246.434897 227.049267 283.489625 201.983383 224.416722 288.941189 187.361994"></polygon>
                        <polygon id="Stroke-2" stroke="#CBCBCB" stroke-width="4.46080007" stroke-linecap="round" stroke-linejoin="round" points="314.014724 246.434897 227.049267 283.489625 201.983383 224.416722 288.941189 187.361994"></polygon>
                        <polygon id="Fill-4" fill="#FEFEFE" points="201.982618 224.416211 189.969969 196.106398 276.930325 159.056781 288.942974 187.361483"></polygon>
                        <polygon id="Stroke-5" stroke="#CBCBCB" stroke-width="4.46080007" stroke-linecap="round" stroke-linejoin="round" points="201.982618 224.416211 189.969969 196.106398 276.930325 159.056781 288.942974 187.361483"></polygon>
                        <g id="Group-50" transform="translate(0.000000, 0.835648)">
                            <path d="M212.554514,202.363025 C213.378311,204.297538 212.480551,206.536154 210.542204,207.36158 C208.614059,208.184451 206.379859,207.279804 205.556062,205.345292 C204.734815,203.41078 205.635126,201.167052 207.565822,200.346737 C209.501618,199.521311 211.735818,200.425957 212.554514,202.363025" id="Fill-6" fill="#CBCBCB"></path>
                            <path d="M224.346549,197.334315 C225.170346,199.271383 224.267484,201.51 222.336789,202.337981 C220.400993,203.160852 218.169344,202.256205 217.348097,200.319138 C216.52685,198.38207 217.427161,196.146009 219.360407,195.320583 C221.293652,194.502823 223.530403,195.404914 224.346549,197.334315" id="Fill-8" fill="#CBCBCB"></path>
                            <path d="M236.137308,192.313016 C236.958555,194.250084 236.060794,196.488701 234.124998,197.311571 C232.196853,198.136997 229.960103,197.234907 229.136305,195.295283 C228.315058,193.360771 229.21792,191.122154 231.151166,190.299284 C233.084412,189.471302 235.316061,190.378504 236.137308,192.313016" id="Fill-10" fill="#CBCBCB"></path>
                            <g id="Group-15" transform="translate(265.247450, 172.818901)">
                                <path d="M5.16288859,0.20189057 L0.668984675,11.379641" id="Fill-12" fill="#89C541"></path>
                                <path d="M5.16288859,0.20189057 L0.668984675,11.379641" id="Stroke-14" stroke="#CBCBCB" stroke-width="1.85920003" stroke-linecap="round" stroke-linejoin="round"></path>
                            </g>
                            <g id="Group-19" transform="translate(261.747987, 176.329396)">
                                <path d="M0.840357542,0.0255549849 L11.9884018,4.53345432" id="Fill-16" fill="#89C541"></path>
                                <path d="M0.840357542,0.0255549849 L11.9884018,4.53345432" id="Stroke-18" stroke="#CBCBCB" stroke-width="1.85920003" stroke-linecap="round" stroke-linejoin="round"></path>
                            </g>
                            <path d="M171.165455,0.171473948 L142.169318,0.171473948 C139.425027,0.171473948 137.178075,2.42542361 137.178075,5.17513999 L137.178075,54.4630393 C137.178075,57.2076447 139.425027,59.4564833 142.169318,59.4564833 L180.790877,59.4564833 C183.535168,59.4564833 185.779569,57.2076447 185.779569,54.4630393 L185.779569,14.8170358 L171.165455,0.171473948 Z" id="Fill-20" fill="#FEFEFE"></path>
                            <path d="M171.165455,0.171473948 L142.169318,0.171473948 C139.425027,0.171473948 137.178075,2.42542361 137.178075,5.17513999 L137.178075,54.4630393 C137.178075,57.2076447 139.425027,59.4564833 142.169318,59.4564833 L180.790877,59.4564833 C183.535168,59.4564833 185.779569,57.2076447 185.779569,54.4630393 L185.779569,14.8170358 L171.165455,0.171473948 Z" id="Stroke-22" stroke="#CBCBCB" stroke-width="4.46080007" stroke-linecap="round" stroke-linejoin="round"></path>
                            <polygon id="Fill-24" fill="#FEFEFE" points="171.165455 0.171473948 166.949551 8.57650847 185.779569 14.8170358"></polygon>
                            <polygon id="Stroke-26" stroke="#CBCBCB" stroke-width="4.46080007" stroke-linecap="round" stroke-linejoin="round" points="171.165455 0.171473948 166.949551 8.57650847 185.779569 14.8170358"></polygon>
                            <polygon id="Fill-28" fill="#FEFEFE" points="70.0799067 142.562061 1.00589995 131.644971 8.39202126 84.7234635 77.466028 95.6405531"></polygon>
                            <polygon id="Stroke-30" stroke="#CBCBCB" stroke-width="4.46080007" stroke-linecap="round" stroke-linejoin="round" points="70.0799067 142.562061 1.00589995 131.644971 8.39202126 84.7234635 77.466028 95.6405531"></polygon>
                            <polygon id="Fill-32" fill="#FEFEFE" points="8.39329648 84.7239746 11.9333298 62.2381434 81.0073365 73.1577885 77.4673032 95.6385087"></polygon>
                            <polygon id="Stroke-34" stroke="#CBCBCB" stroke-width="4.46080007" stroke-linecap="round" stroke-linejoin="round" points="8.39329648 84.7239746 11.9333298 62.2381434 81.0073365 73.1577885 77.4673032 95.6385087"></polygon>
                            <path d="M23.3323389,75.5625126 C23.0925961,77.1009226 21.6515883,78.153788 20.1136632,77.9084602 C18.5808389,77.6656878 17.5326014,76.2218312 17.7723443,74.6834211 C18.0146377,73.1475665 19.4556454,72.0947011 20.9910201,72.3374735 C22.5289452,72.5802458 23.5746323,74.0241025 23.3323389,75.5625126" id="Fill-36" fill="#CBCBCB"></path>
                            <path d="M32.6999097,77.0398462 C32.4576164,78.5808118 31.0166086,79.6311217 29.4812339,79.3909048 C27.9433088,79.145577 26.8976217,77.7017203 27.1399151,76.1633103 C27.3822084,74.6249002 28.8232162,73.5771458 30.3611413,73.8173626 C31.8939655,74.0626905 32.9422031,75.5065471 32.6999097,77.0398462" id="Fill-38" fill="#CBCBCB"></path>
                            <path d="M42.06493,78.5222909 C41.8226367,80.0632565 40.3816289,81.1135664 38.8462542,80.8682385 C37.31343,80.6280217 36.2626421,79.184165 36.5049354,77.6431994 C36.7472287,76.1073448 38.1882365,75.057035 39.7236112,75.2998073 C41.2615363,75.5400242 42.3072234,76.9838808 42.06493,78.5222909" id="Fill-40" fill="#CBCBCB"></path>
                            <g id="Group-45" transform="translate(63.761406, 79.220453)">
                                <path d="M7.36087179,0.661874108 L0.166034702,5.910868" id="Fill-42" fill="#89C541"></path>
                                <path d="M7.36087179,0.661874108 L0.166034702,5.910868" id="Stroke-44" stroke="#CBCBCB" stroke-width="1.85920003" stroke-linecap="round" stroke-linejoin="round"></path>
                            </g>
                            <g id="Group-49" transform="translate(63.761406, 78.265457)">
                                <path d="M1.14796036,0.636069763 L6.37894614,7.84513099" id="Fill-46" fill="#89C541"></path>
                                <path d="M1.14796036,0.636069763 L6.37894614,7.84513099" id="Stroke-48" stroke="#CBCBCB" stroke-width="1.85920003" stroke-linecap="round" stroke-linejoin="round"></path>
                            </g>
                        </g>
                    </g>
                    <g id="Group-7" opacity="0.828566778">
                        <g id="Group-3" transform="translate(0.000000, 404.764645)">
                            <mask id="mask-2" fill="white">
                                <use xlink:href="#path-1"></use>
                            </mask>
                            <g id="Clip-2"></g>
                            <path d="M341.930233,25.6497939 C337.074164,11.6558841 262.455466,0.539465731 171.095572,0.539465731 C79.7407799,0.539465731 5.11953084,11.6558841 0.263462131,25.6497939 L0.000765136876,27.101317 C0.000765136876,41.7724338 76.6037187,53.6657238 171.095572,53.6657238 C265.592527,53.6657238 342.19293,41.7724338 342.19293,27.101317 L341.930233,25.6497939 Z" id="Fill-1" fill="url(#linearGradient-3)" opacity="0.325544085" mask="url(#mask-2)"></path>
                        </g>
                        <g id="Group-6" transform="translate(0.000000, 0.040888)">
                            <mask id="mask-5" fill="white">
                                <use xlink:href="#path-4"></use>
                            </mask>
                            <g id="Clip-5"></g>
                            <path d="M230.900711,26.2117542 C230.900711,12.2408439 225.233597,0.914874648 171.523539,0.914874648 C117.816031,0.914874648 112.148917,12.2408439 112.148917,26.2117542 L0.69142869,430.782942 C5.55004785,416.791587 80.1687465,405.672613 171.523539,405.672613 C262.883432,405.672613 337.502131,416.791587 342.3582,430.782942 L230.900711,26.2117542 Z" id="Fill-4" fill="url(#linearGradient-3)" opacity="0.233189174" mask="url(#mask-5)"></path>
                        </g>
                    </g>
                </g>
                <g id="Group-9">
                    <path d="M318.639588,98.1423744 C318.639588,152.068742 274.758953,195.783055 220.633114,195.783055 C166.504721,195.783055 122.62664,152.068742 122.62664,98.1423744 C122.62664,44.2160069 166.504721,0.501693903 220.633114,0.501693903 C274.758953,0.501693903 318.639588,44.2160069 318.639588,98.1423744 Z" id="Stroke-1" stroke="#CBCBCB" stroke-width="16.6304002"></path>
                    <path d="M250.981908,98.1423744 C250.981908,114.840051 237.392324,128.378914 220.632092,128.378914 C203.871861,128.378914 190.284832,114.840051 190.284832,98.1423744 C190.284832,81.4446981 203.871861,67.9058352 220.632092,67.9058352 C237.392324,67.9058352 250.981908,81.4446981 250.981908,98.1423744 Z" id="Stroke-3" stroke="#CBCBCB" stroke-width="7.12800011"></path>
                    <path d="M433.44615,133.253057 C433.44615,133.253057 347.348127,105.564441 221.523757,105.475352 L221.523757,105.472807 C221.424116,105.472807 221.324474,105.472807 221.222277,105.472807 C221.122636,105.472807 221.022994,105.472807 220.920798,105.472807 L220.920798,105.475352 C95.0938728,105.564441 8.99584971,133.253057 8.99584971,133.253057 C-28.9471676,153.715347 67.9760231,195.4799 146.800208,205.114154 C195.836659,211.108518 217.515098,210.370359 221.222277,210.428902 C221.222277,210.428902 246.607896,211.108518 295.644347,205.114154 C374.471087,195.4799 471.394277,153.715347 433.44615,133.253057" id="Fill-5" fill="#FEFEFE"></path>
                    <path d="M433.44615,133.253057 C433.44615,133.253057 347.348127,105.564441 221.523757,105.475352 L221.523757,105.472807 C221.424116,105.472807 221.324474,105.472807 221.222277,105.472807 C221.122636,105.472807 221.022994,105.472807 220.920798,105.472807 L220.920798,105.475352 C95.0938728,105.564441 8.99584971,133.253057 8.99584971,133.253057 C-28.9471676,153.715347 67.9760231,195.4799 146.800208,205.114154 C195.836659,211.108518 217.515098,210.370359 221.222277,210.428902 C221.222277,210.428902 246.607896,211.108518 295.644347,205.114154 C374.471087,195.4799 471.394277,153.715347 433.44615,133.253057 Z" id="Stroke-7" stroke="#CBCBCB" stroke-width="16.6304002"></path>
                </g>
            </g>
        </g>
    </g>
</svg>