<svg width="24" height="24" viewBox="0 0 24 24" fill="none" xmlns="http://www.w3.org/2000/svg">
<g id="icon/Files Light">
<path id="&#239;&#134;&#135;" fill-rule="evenodd" clip-rule="evenodd" d="M20.9374 2.50005C21.5104 2.50005 21.9973 2.70057 22.3984 3.10161C22.7994 3.50265 22.9999 3.98963 22.9999 4.56254V8.00003C22.9999 8.20055 22.9355 8.36526 22.8066 8.49417C22.6777 8.62308 22.513 8.68753 22.3124 8.68753H21.6249V20.375C21.6249 20.7474 21.4889 21.0697 21.2167 21.3418C20.9446 21.6139 20.6223 21.75 20.25 21.75H3.74999C3.3776 21.75 3.05533 21.6139 2.7832 21.3418C2.51106 21.0697 2.375 20.7474 2.375 20.375V8.68753H1.6875C1.48698 8.68753 1.32226 8.62308 1.19336 8.49417C1.06445 8.36526 1 8.20055 1 8.00003V4.56254C1 3.98963 1.20052 3.50265 1.60156 3.10161C2.0026 2.70057 2.48958 2.50005 3.06249 2.50005H20.9374ZM19.5625 19.6875V8.68753H4.43749V19.6875H19.5625ZM20.9374 6.62504V4.56254H3.06249V6.62504H20.9374ZM9.7656 12.8125C9.62237 12.8125 9.50063 12.7624 9.40037 12.6621C9.30011 12.5619 9.24998 12.4401 9.24998 12.2969V11.2656C9.24998 11.1224 9.30011 11.0007 9.40037 10.9004C9.50063 10.8002 9.62237 10.75 9.7656 10.75H14.2343C14.3776 10.75 14.4993 10.8002 14.5996 10.9004C14.6998 11.0007 14.75 11.1224 14.75 11.2656V12.2969C14.75 12.4401 14.6998 12.5619 14.5996 12.6621C14.4993 12.7624 14.3776 12.8125 14.2343 12.8125H9.7656Z" fill="#5361FD"/>
</g>
</svg>
