<?xml version="1.0" encoding="UTF-8"?>
<svg width="88px" height="25px" viewBox="0 0 88 25" version="1.1" xmlns="http://www.w3.org/2000/svg" xmlns:xlink="http://www.w3.org/1999/xlink">
    <!-- Generator: Sketch 52.3 (67297) - http://www.bohemiancoding.com/sketch -->
    <title>logo/inrupt</title>
    <desc>Created with Sketch.</desc>
    <defs>
        <linearGradient x1="-0.00383022774%" y1="49.9949295%" x2="99.9937026%" y2="49.9949295%" id="linearGradient-1">
            <stop stop-color="#5850FF" offset="0%"></stop>
            <stop stop-color="#5753FF" offset="1.451594%"></stop>
            <stop stop-color="#4B81F9" offset="24.43%"></stop>
            <stop stop-color="#41A5F4" offset="46.43%"></stop>
            <stop stop-color="#3ABFF1" offset="66.94%"></stop>
            <stop stop-color="#35CEEF" offset="85.39%"></stop>
            <stop stop-color="#34D4EE" offset="100%"></stop>
        </linearGradient>
    </defs>
    <g id="Symbols" stroke="none" stroke-width="1" fill="none" fill-rule="evenodd">
        <g id="nav/Bar-Global-v2" transform="translate(-24.000000, -13.000000)">
            <g id="logo/inrupt" transform="translate(24.000000, 13.000000)">
                <g id="color_inrupt_logo-01">
                    <polygon id="Shape" fill="#7C4DFF" fill-rule="nonzero" points="1.33413655 4.43593466 3.90522088 4.43593466 5.18634538 2.22235935 3.90522088 0.00878402904 1.33413655 0.00878402904 0.0530120482 2.22235935"></polygon>
                    <polygon id="Shape" fill="#7C4DFF" fill-rule="nonzero" points="0.574297189 19.5708167 0.574297189 6.21030853 4.67389558 6.21030853 4.67389558 19.5708167"></polygon>
                    <path d="M20.4449799,19.5708167 L16.3453815,19.5708167 L16.3453815,12.0604719 C16.3453815,11.182069 16.17751,10.5408348 15.8417671,10.1367695 C15.5060241,9.7414882 15.0730924,9.53945554 14.5253012,9.53945554 C14.2337349,9.53945554 13.9421687,9.60094374 13.6506024,9.71513612 C13.3590361,9.83811252 13.0763052,9.99622505 12.8024096,10.2158258 C12.5285141,10.4266425 12.2899598,10.6813793 12.0690763,10.9624682 C11.8570281,11.2523412 11.6891566,11.5685662 11.5654618,11.9023593 L11.5654618,19.5620327 L7.48353414,19.5620327 L7.48353414,6.21030853 L11.1678715,6.21030853 L11.1678715,8.45023593 C11.6626506,7.65088929 12.3606426,7.03600726 13.2706827,6.60558984 C14.1718876,6.17517241 15.2144578,5.95557169 16.3983936,5.95557169 C17.2730924,5.95557169 17.9710843,6.11368421 18.5012048,6.42990926 C19.0313253,6.7461343 19.437751,7.15019964 19.7293173,7.65088929 C20.0208835,8.15157895 20.215261,8.69618875 20.3036145,9.29350272 C20.4008032,9.8908167 20.4449799,10.4617786 20.4449799,11.0239564 L20.4449799,19.5708167 Z" id="Shape" fill="#7C4DFF" fill-rule="nonzero"></path>
                    <path d="M31.6835341,9.69756806 C30.6939759,9.71513612 29.8016064,9.87324864 28.9975904,10.1806897 C28.1935743,10.4881307 27.6192771,10.9449002 27.2570281,11.5509982 L27.2570281,19.5708167 L23.1574297,19.5708167 L23.1574297,6.21030853 L26.9212851,6.21030853 L26.9212851,8.90700544 C27.3807229,8.01103448 27.9726908,7.29952813 28.6971888,6.79005445 C29.4216867,6.28058076 30.1991968,6.01705989 31.0120482,5.99949183 C31.1975904,5.99949183 31.3389558,5.99949183 31.4184739,5.99949183 C31.5068273,5.99949183 31.5863454,6.00827586 31.6746988,6.02584392 L31.6746988,9.69756806 L31.6835341,9.69756806 Z M37.4706827,19.8255535 C36.0923695,19.8255535 35.0409639,19.3951361 34.3341365,18.5430853 C33.6273092,17.6822505 33.2738956,16.4261343 33.2738956,14.7659528 L33.2738956,6.21030853 L37.373494,6.21030853 L37.373494,13.8699819 C37.373494,14.6868966 37.5325301,15.3105626 37.8594378,15.74098 C38.1863454,16.1713975 38.6457831,16.3909982 39.237751,16.3909982 C39.7855422,16.3909982 40.3156627,16.2504537 40.8281124,15.9605808 C41.3405622,15.6707078 41.7911647,15.1700181 42.188755,14.4585118 L42.188755,6.21030853 L46.2883534,6.21030853 L46.2883534,14.9943376 C46.2883534,15.3984029 46.3502008,15.6882759 46.4827309,15.8463884 C46.6064257,16.0045009 46.8361446,16.1011252 47.1630522,16.1362613 L47.1630522,19.5708167 C46.7742972,19.658657 46.4385542,19.7113612 46.1646586,19.7377132 C45.8907631,19.7640653 45.6433735,19.7728494 45.42249,19.7728494 C43.9558233,19.7728494 43.1164659,19.2018875 42.913253,18.0687477 L42.8337349,17.251833 C42.215261,18.1302359 41.4554217,18.7802541 40.5453815,19.2018875 C39.6176707,19.6235209 38.5927711,19.8255535 37.4706827,19.8255535 Z M57.951004,19.8255535 C56.9261044,19.8255535 56.0425703,19.6147368 55.2915663,19.1931034 C54.5405622,18.7714701 53.9574297,18.1741561 53.551004,17.4099456 L53.551004,24.9993466 L49.4514056,24.9993466 L49.4514056,6.21030853 L53.0120482,6.21030853 L53.0120482,8.37117967 C53.5068273,7.60696915 54.1253012,7.00965517 54.8674699,6.58802178 C55.6096386,6.16638838 56.4931727,5.95557169 57.5180723,5.95557169 C58.4192771,5.95557169 59.2586345,6.13125227 60.0184739,6.49139746 C60.7783133,6.85154265 61.4321285,7.33466425 61.988755,7.95833031 C62.5453815,8.58199637 62.9783133,9.31107078 63.2963855,10.1455535 C63.6144578,10.9888203 63.773494,11.8935753 63.773494,12.8598185 C63.773494,13.8611978 63.6321285,14.7835209 63.3405622,15.6355717 C63.048996,16.4876225 62.6514056,17.2166969 62.1389558,17.840363 C61.626506,18.464029 61.0168675,18.9471506 60.2923695,19.3072958 C59.5678715,19.649873 58.7903614,19.8255535 57.951004,19.8255535 Z M56.5726908,16.3909982 C57.0144578,16.3909982 57.4208835,16.2943739 57.7919679,16.1011252 C58.1630522,15.9078766 58.4811245,15.6443557 58.7550201,15.3281307 C59.0289157,15.0031216 59.2409639,14.6254083 59.3823293,14.1949909 C59.5236948,13.7645735 59.6032129,13.307804 59.6032129,12.8334664 C59.6032129,12.3415608 59.5236948,11.8847913 59.3558233,11.4719419 C59.1967871,11.0590926 58.9759036,10.6989474 58.6931727,10.3915064 C58.4104418,10.0840653 58.0658635,9.84689655 57.6682731,9.68 C57.2706827,9.51310345 56.837751,9.42526316 56.3783133,9.42526316 C55.8128514,9.42526316 55.2738956,9.59215971 54.7526104,9.92595281 C54.2313253,10.2597459 53.8337349,10.6989474 53.5598394,11.2611252 L53.5598394,14.0105263 C53.8337349,14.6868966 54.248996,15.2578584 54.8056225,15.7146279 C55.3445783,16.1626134 55.9365462,16.3909982 56.5726908,16.3909982 Z M74.3670683,18.8593103 C73.8016064,19.0964791 73.1566265,19.3160799 72.4321285,19.5181125 C71.7076305,19.7201452 70.9742972,19.8255535 70.2409639,19.8255535 C69.7285141,19.8255535 69.2425703,19.7640653 68.7919679,19.6323049 C68.3413655,19.5093285 67.9437751,19.2985118 67.5991968,19.0174229 C67.2546185,18.7363339 66.9895582,18.3674047 66.7951807,17.9106352 C66.6008032,17.4538657 66.5036145,16.9004719 66.5036145,16.2592377 L66.5036145,9.28471869 L64.7895582,9.28471869 L64.7895582,6.21030853 L66.5036145,6.21030853 L66.5036145,1.95883848 L70.6032129,1.95883848 L70.6032129,6.21030853 L73.3421687,6.21030853 L73.3421687,9.29350272 L70.6032129,9.29350272 L70.6032129,14.8713612 C70.6032129,15.3105626 70.7180723,15.6355717 70.9389558,15.8288203 C71.1598394,16.022069 71.4425703,16.1186933 71.7871486,16.1186933 C72.0963855,16.1186933 72.4144578,16.0659891 72.7325301,15.9693648 C73.0594378,15.8639564 73.3421687,15.7585481 73.5807229,15.6355717 L74.3670683,18.8593103 Z" id="Shape" fill="url(#linearGradient-1)" fill-rule="nonzero"></path>
                    <path d="M75.913253,15.4950272 C75.5421687,15.4950272 75.2329317,15.7936842 75.2329317,16.1713975 C75.2329317,16.5491107 75.5333333,16.8477677 75.913253,16.8477677 C76.2931727,16.8477677 76.5935743,16.5491107 76.5935743,16.1713975 C76.5935743,15.7936842 76.2843373,15.4950272 75.913253,15.4950272 Z M75.913253,16.3909982 C75.7895582,16.3909982 75.6923695,16.2943739 75.6923695,16.1713975 C75.6923695,16.0484211 75.7895582,15.9517967 75.913253,15.9517967 C76.0369478,15.9517967 76.1341365,16.0484211 76.1341365,16.1713975 C76.1341365,16.2943739 76.0369478,16.3909982 75.913253,16.3909982 Z M75.2329317,10.286098 L74.9767068,9.7414882 L75.3212851,9.24958258 L75.9220884,9.29350272 L76.1783133,9.83811252 L75.8337349,10.3300181 L75.2329317,10.286098 Z M79.588755,12.3591289 L78.5461847,12.692922 L78.3164659,13.7645735 L79.1293173,14.4936479 L80.1718876,14.1598548 L80.4016064,13.0882033 L79.588755,12.3591289 Z M79.7831325,13.8084936 L79.2441767,13.9841742 L78.8200803,13.606461 L78.9349398,13.0530672 L79.4738956,12.8773866 L79.897992,13.2550998 L79.7831325,13.8084936 Z M81.4618474,17.1200726 L80.5076305,17.4275136 L80.2955823,18.4025408 L81.0465863,19.070127 L82.0008032,18.762686 L82.2128514,17.7876588 L81.4618474,17.1200726 Z M81.6032129,18.4113249 L81.1526104,18.5606534 L80.7991968,18.2444283 L80.8963855,17.7876588 L81.346988,17.6383303 L81.7004016,17.9545554 L81.6032129,18.4113249 Z M85.5702811,10.6462432 L83.546988,11.2962613 L83.1052209,13.3692922 L84.686747,14.7835209 L86.7100402,14.1335027 L87.1518072,12.0604719 L85.5702811,10.6462432 Z M86.3124498,13.7733575 L84.7927711,14.2652632 L83.6088353,13.2023956 L83.9445783,11.6476225 L85.464257,11.1557169 L86.6481928,12.2185844 L86.3124498,13.7733575 Z M82.5220884,8.63470054 L81.2586345,8.37117967 L80.3927711,9.32863884 L80.7903614,10.5496189 L82.0538153,10.8131397 L82.9196787,9.85568058 L82.5220884,8.63470054 Z M81.8859438,10.3036661 L81.1437751,10.1455535 L80.9052209,9.42526316 L81.4176707,8.8630853 L82.1598394,9.02119782 L82.3983936,9.7414882 L81.8859438,10.3036661 Z M79.1116466,6.2015245 L78.2457831,6.29814882 L77.9012048,7.08871143 L78.4136546,7.78264973 L79.2795181,7.68602541 L79.6240964,6.89546279 L79.1116466,6.2015245 Z M78.9702811,7.25560799 L78.6345382,7.2907441 L78.4313253,7.0184392 L78.5638554,6.71099819 L78.8995984,6.67586207 L79.1028112,6.94816697 L78.9702811,7.25560799 Z M77.7068273,2.33655172 L76.8674699,2.55615245 L76.6465863,3.39063521 L77.2650602,4.00551724 L78.1044177,3.78591652 L78.3253012,2.95143376 L77.7068273,2.33655172 Z M77.724498,3.40820327 L77.3975904,3.49604356 L77.1590361,3.25887477 L77.2473896,2.9338657 L77.5742972,2.84602541 L77.8128514,3.08319419 L77.724498,3.40820327 Z M86.7100402,1.47571688 L84.2184739,1.47571688 L82.9726908,3.61901996 L84.2184739,5.76232305 L86.7100402,5.76232305 L87.9558233,3.61901996 L86.7100402,1.47571688 Z M86.4449799,5.30555354 L84.4835341,5.30555354 L83.5028112,3.61901996 L84.4835341,1.93248639 L86.4449799,1.93248639 L87.4257028,3.61901996 L86.4449799,5.30555354 Z" id="Shape" fill="#01C9EA" fill-rule="nonzero"></path>
                </g>
            </g>
        </g>
    </g>
</svg>