<svg width="16" height="16" viewBox="0 0 16 16" fill="none" xmlns="http://www.w3.org/2000/svg">
<path fill-rule="evenodd" clip-rule="evenodd" d="M16 12.4985C16 7.99808 12.0069 8.9992 12.0069 5.49838C12.0069 5.20936 11.9789 4.96158 11.9277 4.75035C11.6643 2.98432 10.4891 1.56824 8.96659 1.13642C8.98001 1.07393 8.9875 1.0105 8.9875 0.944571C8.9875 0.424635 8.53751 0 7.98923 0C7.43939 0 6.98941 0.425885 6.98941 0.944571C6.98941 1.0105 6.9969 1.07393 7.01032 1.13642C5.30244 1.61949 4.03238 3.34303 3.99587 5.40808C3.99462 5.43745 3.99462 5.46808 3.99462 5.49838C3.99462 8.9992 0 7.99808 0 12.4985C0 13.6883 2.66214 14.6857 6.22519 14.9369C6.56033 15.5681 7.2247 15.9977 7.98923 15.9977C8.75221 15.9977 9.41657 15.5681 9.75172 14.9369C13.316 14.6857 15.9769 13.6883 15.9769 12.4985C15.9769 12.4947 15.9769 12.491 15.9769 12.4875L16 12.4985ZM12.8919 13.343C12.0459 13.569 11.0474 13.7324 9.97734 13.8227C9.8884 12.8 9.03243 11.9979 7.98923 11.9979C6.94447 11.9979 6.08882 12.8 5.99988 13.8227C4.92953 13.7324 3.93127 13.5699 3.08529 13.343C1.92101 13.0318 1.36399 12.6841 1.16053 12.4985C1.36399 12.3116 1.92101 11.9638 3.08529 11.6526C4.43961 11.2914 6.18025 11.0924 7.98923 11.0924C9.79697 11.0924 11.5376 11.2914 12.8919 11.6526C14.0559 11.9638 14.6129 12.3116 14.8164 12.4985C14.6129 12.6841 14.0559 13.0318 12.8919 13.343Z" fill="#5361FD"/>
</svg>
