<svg width="24" height="24" viewBox="0 0 24 24" fill="none" xmlns="http://www.w3.org/2000/svg">
<g id="icon/things_v2">
<path id="Windows Copy" fill-rule="evenodd" clip-rule="evenodd" d="M18.8046 3.03125L23.6171 11.2812C23.789 11.5963 23.8749 11.9401 23.8749 12.3125C23.8749 12.6849 23.789 13.0286 23.6171 13.3437L18.7617 21.5937C18.5898 21.9088 18.3463 22.1595 18.0312 22.3457C17.7161 22.5319 17.3724 22.625 17 22.625H7.37498C7.00259 22.625 6.65884 22.5319 6.34374 22.3457C6.02863 22.1595 5.78514 21.9088 5.61327 21.5937L0.757812 13.3437C0.585937 13.0286 0.5 12.6849 0.5 12.3125C0.5 11.9401 0.60026 11.5963 0.800781 11.2812L5.61327 3.03125C5.78514 2.71614 6.02863 2.46549 6.34374 2.2793C6.65884 2.0931 7.00259 2 7.37498 2H17C17.3724 2 17.7161 2.0931 18.0312 2.2793C18.3463 2.46549 18.6041 2.71614 18.8046 3.03125ZM22.414 12.6562C22.5286 12.4271 22.5286 12.1979 22.414 11.9687L17.6015 3.71875C17.4583 3.48958 17.2578 3.375 17 3.375H7.37498C7.11717 3.375 6.91665 3.48958 6.77342 3.71875L1.96093 11.9687C1.81771 12.1979 1.81771 12.4271 1.96093 12.6562L6.77342 20.9062C6.91665 21.1354 7.11717 21.25 7.37498 21.25H17C17.2578 21.25 17.4583 21.1354 17.6015 20.9062L22.414 12.6562Z" fill="#5361FD"/>
<g id="Group 8">
<path id="Windows Copy 4" fill-rule="evenodd" clip-rule="evenodd" d="M17.4402 10.1612L18.6517 12.2504C18.695 12.3302 18.7166 12.4173 18.7166 12.5116C18.7166 12.6059 18.695 12.693 18.6517 12.7728L17.4294 14.862C17.3861 14.9418 17.3248 15.0053 17.2455 15.0525C17.1662 15.0996 17.0796 15.1232 16.9859 15.1232H14.5628C14.469 15.1232 14.3825 15.0996 14.3032 15.0525C14.2239 15.0053 14.1626 14.9418 14.1193 14.862L12.8969 12.7728C12.8537 12.693 12.832 12.6059 12.832 12.5116C12.832 12.4173 12.8573 12.3302 12.9078 12.2504L14.1193 10.1612C14.1626 10.0814 14.2239 10.0179 14.3032 9.97073C14.3825 9.92358 14.469 9.9 14.5628 9.9H16.9859C17.0796 9.9 17.1662 9.92358 17.2455 9.97073C17.3248 10.0179 17.3897 10.0814 17.4402 10.1612ZM18.3488 12.5987C18.3777 12.5406 18.3777 12.4826 18.3488 12.4245L17.1373 10.3353C17.1013 10.2772 17.0508 10.2482 16.9859 10.2482H14.5628C14.4979 10.2482 14.4474 10.2772 14.4114 10.3353L13.1998 12.4245C13.1638 12.4826 13.1638 12.5406 13.1998 12.5987L14.4114 14.6879C14.4474 14.746 14.4979 14.775 14.5628 14.775H16.9859C17.0508 14.775 17.1013 14.746 17.1373 14.6879L18.3488 12.5987Z" fill="#5361FD"/>
<path id="Line 3" opacity="0.310937" d="M10.2303 11.1071V14.8214" stroke="#5361FD" stroke-width="0.5" stroke-linecap="round" stroke-linejoin="round"/>
<path id="Line 3 Copy" opacity="0.310937" d="M13.9232 13.8929L10.9232 15.75" stroke="#5361FD" stroke-width="0.5" stroke-linejoin="round"/>
<path id="Line 3 Copy 2" opacity="0.310937" d="M13.9232 11.1071L10.9232 9.25" stroke="#5361FD" stroke-width="0.5" stroke-linejoin="round"/>
<path id="Windows Copy 3" fill-rule="evenodd" clip-rule="evenodd" d="M11.9021 13.6317L13.1136 15.721C13.1569 15.8008 13.1785 15.8878 13.1785 15.9821C13.1785 16.0765 13.1569 16.1635 13.1136 16.2433L11.8913 18.3326C11.848 18.4124 11.7867 18.4759 11.7074 18.523C11.6281 18.5702 11.5415 18.5938 11.4478 18.5938H9.02471C8.93096 18.5938 8.84442 18.5702 8.7651 18.523C8.68577 18.4759 8.62447 18.4124 8.5812 18.3326L7.35885 16.2433C7.31558 16.1635 7.29395 16.0765 7.29395 15.9821C7.29395 15.8878 7.31919 15.8008 7.36967 15.721L8.5812 13.6317C8.62447 13.5519 8.68577 13.4884 8.7651 13.4413C8.84442 13.3941 8.93096 13.3705 9.02471 13.3705H11.4478C11.5415 13.3705 11.6281 13.3941 11.7074 13.4413C11.7867 13.4884 11.8516 13.5519 11.9021 13.6317Z" fill="#7681FE"/>
<path id="Windows Copy 2" fill-rule="evenodd" clip-rule="evenodd" d="M11.9021 6.72545L13.1136 8.81473C13.1569 8.89453 13.1785 8.98158 13.1785 9.07589C13.1785 9.1702 13.1569 9.25725 13.1136 9.33705L11.8913 11.4263C11.848 11.5061 11.7867 11.5696 11.7074 11.6168C11.6281 11.6639 11.5415 11.6875 11.4478 11.6875H9.02471C8.93096 11.6875 8.84442 11.6639 8.7651 11.6168C8.68577 11.5696 8.62447 11.5061 8.5812 11.4263L7.35885 9.33705C7.31558 9.25725 7.29395 9.1702 7.29395 9.07589C7.29395 8.98158 7.31919 8.89453 7.36967 8.81473L8.5812 6.72545C8.62447 6.64565 8.68577 6.58217 8.7651 6.53502C8.84442 6.48786 8.93096 6.46429 9.02471 6.46429H11.4478C11.5415 6.46429 11.6281 6.48786 11.7074 6.53502C11.7867 6.58217 11.8516 6.64565 11.9021 6.72545Z" fill="#626EEE"/>
</g>
</g>
</svg>
