<?xml version="1.0" encoding="UTF-8"?>
<svg width="395px" height="395px" viewBox="0 0 395 395" version="1.1" xmlns="http://www.w3.org/2000/svg" xmlns:xlink="http://www.w3.org/1999/xlink">
    <!-- Generator: Sketch 55.2 (78181) - https://sketchapp.com -->
    <title>02_01_Tic-Tac-Toe-Icons-color</title>
    <desc>Created with Sketch.</desc>
    <defs>
        <polygon id="path-1" points="0 0.71 153.0099 0.71 153.0099 153.7202 0 153.7202"></polygon>
        <polygon id="path-3" points="0 0.1453 106.9178 0.1453 106.9178 106.7193 0 106.7193"></polygon>
        <polygon id="path-5" points="0.9888 0.71 153.9998 0.71 153.9998 153.7195 0.9888 153.7195"></polygon>
        <polygon id="path-7" points="0 0.9894 153.0099 0.9894 153.0099 153.9994 0 153.9994"></polygon>
    </defs>
    <g id="02_01_Tic-Tac-Toe-Icons-color" stroke="none" stroke-width="1" fill="none" fill-rule="evenodd">
        <g id="Group-29" transform="translate(33.000000, 35.000000)">
            <path d="M264.2438,172.2793 L190.6928,172.2793 C183.1238,172.2793 176.9888,178.4143 176.9888,185.9823 L176.9888,255.4733 L179.4668,252.9963 L212.3828,220.0803 C215.8258,215.1633 220.1148,210.8863 225.0558,207.4733 C233.1478,201.8873 242.9408,198.5943 253.4948,198.5943 C281.1698,198.5943 303.6858,221.1103 303.6858,248.7833 C303.6858,260.8353 299.4098,271.9033 292.3068,280.5643 C290.1968,283.1333 287.8418,285.4883 285.2728,287.5973 L247.5788,325.2893 L316.2978,325.2893 C323.8648,325.2893 329.9998,319.1553 329.9998,311.5873 L329.9998,242.8683 L329.9998,226.9683 L329.9998,185.9823 C329.9998,178.4143 323.8648,172.2793 316.2978,172.2793 L264.2438,172.2793 Z" id="Fill-1" fill="#6974F1"></path>
            <g id="Group-5" transform="translate(0.000000, 0.290000)">
                <mask id="mask-2" fill="white">
                    <use xlink:href="#path-1"></use>
                </mask>
                <g id="Clip-4"></g>
                <path d="M-0.0001,14.4122 L-0.0001,83.5602 L1.7759,81.7842 L36.4139,47.1452 C39.2689,43.3492 42.6389,39.9792 46.4359,37.1242 C54.8279,30.8142 65.2189,27.0242 76.5059,27.0242 C104.1809,27.0242 126.6959,49.5392 126.6959,77.2142 C126.6959,88.6542 122.8049,99.1782 116.3379,107.6272 C113.6259,111.1722 110.4609,114.3362 106.9179,117.0482 L70.2469,153.7202 L139.3079,153.7202 C146.8749,153.7202 153.0099,147.5862 153.0099,140.0172 L153.0099,70.9562 L153.0099,56.3312 L153.0099,14.4122 C153.0099,6.8452 146.8749,0.7092 139.3079,0.7092 L13.7029,0.7092 C6.1339,0.7092 -0.0001,6.8452 -0.0001,14.4122" id="Fill-3" fill="#6974F1" mask="url(#mask-2)"></path>
            </g>
            <path d="M76.5058,114.0288 C96.6458,114.0288 113.0288,97.6438 113.0288,77.5038 C113.0288,57.3648 96.6458,40.9808 76.5058,40.9808 C56.3668,40.9808 39.9818,57.3648 39.9818,77.5038 C39.9818,97.6438 56.3668,114.0288 76.5058,114.0288" id="Fill-6" fill="#5761DA"></path>
            <g id="Group-10" transform="translate(0.000000, 47.290000)">
                <mask id="mask-4" fill="white">
                    <use xlink:href="#path-3"></use>
                </mask>
                <g id="Clip-9"></g>
                <path d="M76.5058,80.4053 C48.8298,80.4053 26.3148,57.8903 26.3148,30.2143 C26.3148,18.9293 30.1038,8.5383 36.4138,0.1453 L1.7768,34.7833 L-0.0002,36.5603 L-0.0002,93.0173 C-0.0002,100.5863 6.1338,106.7193 13.7028,106.7193 L70.2468,106.7193 L106.9178,70.0483 C98.4668,76.5163 87.9438,80.4053 76.5058,80.4053" id="Fill-8" fill="#5761DA" mask="url(#mask-4)"></path>
            </g>
            <path d="M253.495,285.3091 C273.635,285.3091 290.018,268.9231 290.018,248.7841 C290.018,228.6451 273.635,212.2611 253.495,212.2611 C233.356,212.2611 216.971,228.6451 216.971,248.7841 C216.971,268.9231 233.356,285.3091 253.495,285.3091" id="Fill-11" fill="#5761D2"></path>
            <path d="M203.305,248.7841 C203.305,238.1101 206.68,228.2231 212.383,220.0801 L179.467,252.9961 L176.989,255.4731 L176.989,311.5871 C176.989,319.1561 183.124,325.2891 190.692,325.2891 L247.579,325.2891 L285.272,287.5971 C276.612,294.7021 265.545,298.9751 253.495,298.9751 C225.819,298.9751 203.305,276.4601 203.305,248.7841 Z" id="Fill-13" fill="#5761D2"></path>
            <g id="Group-17" transform="translate(176.000000, 0.290000)">
                <mask id="mask-6" fill="white">
                    <use xlink:href="#path-5"></use>
                </mask>
                <g id="Clip-16"></g>
                <path d="M140.2978,0.7095 L14.6928,0.7095 C7.1238,0.7095 0.9888,6.8445 0.9888,14.4125 L0.9888,64.6375 L32.9538,32.6735 C35.6198,30.0045 39.9498,30.0045 42.6158,32.6735 L77.4938,67.5525 L112.3728,32.6735 C115.0398,30.0045 119.3688,30.0045 122.0358,32.6735 C124.7048,35.3415 124.7048,39.6685 122.0358,42.3365 L87.1568,77.2155 L116.7178,106.7755 L122.0358,112.0925 C123.9218,113.9795 124.4458,116.6865 123.6668,119.0585 C123.3428,120.0425 122.8188,120.9735 122.0358,121.7555 C121.2538,122.5395 120.3218,123.0635 119.3368,123.3865 L89.0048,153.7195 L140.2978,153.7195 C147.8648,153.7195 153.9998,147.5855 153.9998,140.0175 L153.9998,14.4125 C153.9998,6.8445 147.8648,0.7095 140.2978,0.7095" id="Fill-15" fill="#5361FD" mask="url(#mask-6)"></path>
            </g>
            <g id="Group-20" transform="translate(0.000000, 171.290000)">
                <mask id="mask-8" fill="white">
                    <use xlink:href="#path-7"></use>
                </mask>
                <g id="Clip-19"></g>
                <path d="M-0.0001,140.2974 C-0.0001,147.8654 6.1339,153.9994 13.7029,153.9994 L139.3079,153.9994 C146.8749,153.9994 153.0099,147.8654 153.0099,140.2974 L153.0099,14.6924 C153.0099,7.1244 146.8749,0.9894 139.3079,0.9894 L13.7029,0.9894 C6.1339,0.9894 -0.0001,7.1244 -0.0001,14.6924 L-0.0001,140.2974 Z" id="Fill-18" fill="#ABB2FF" mask="url(#mask-8)"></path>
            </g>
            <path d="M288.373,122.0464 L253.494,87.1684 L218.616,122.0464 C217.283,123.3804 215.533,124.0474 213.785,124.0474 C212.037,124.0474 210.287,123.3804 208.954,122.0464 C206.284,119.3784 206.284,115.0504 208.954,112.3824 L243.831,77.5054 L208.954,42.6264 C206.284,39.9584 206.284,35.6314 208.954,32.9644 L176.989,64.9274 L176.989,140.3074 C176.989,147.8764 183.124,154.0094 190.692,154.0094 L265.005,154.0094 L295.337,123.6764 C294.643,123.9064 293.928,124.0474 293.204,124.0474 C291.456,124.0474 289.706,123.3804 288.373,122.0464 Z" id="Fill-21" fill="#404CD9"></path>
            <path d="M76.5058,40.9805 C96.6458,40.9805 113.0288,57.3645 113.0288,77.5035 C113.0288,97.6435 96.6458,114.0285 76.5058,114.0285 C56.3668,114.0285 39.9818,97.6435 39.9818,77.5035 C39.9818,57.3645 56.3668,40.9805 76.5058,40.9805 M76.5058,127.6955 C87.9438,127.6955 98.4668,123.8065 106.9178,117.3385 C110.4618,114.6265 113.6258,111.4615 116.3378,107.9175 C122.8048,99.4675 126.6958,88.9445 126.6958,77.5035 C126.6958,49.8295 104.1808,27.3135 76.5058,27.3135 C65.2188,27.3135 54.8278,31.1045 46.4358,37.4145 C42.6388,40.2695 39.2688,43.6395 36.4138,47.4355 C30.1038,55.8285 26.3148,66.2195 26.3148,77.5035 C26.3148,105.1805 48.8298,127.6955 76.5058,127.6955" id="Fill-23" fill="#FFFFFF"></path>
            <path d="M253.495,212.2613 C273.635,212.2613 290.018,228.6453 290.018,248.7833 C290.018,268.9233 273.635,285.3093 253.495,285.3093 C233.356,285.3093 216.971,268.9233 216.971,248.7833 C216.971,228.6453 233.356,212.2613 253.495,212.2613 M253.495,298.9753 C265.545,298.9753 276.612,294.7013 285.272,287.5973 C287.842,285.4893 290.197,283.1333 292.307,280.5643 C299.41,271.9033 303.685,260.8353 303.685,248.7833 C303.685,221.1103 281.17,198.5943 253.495,198.5943 C242.94,198.5943 233.147,201.8873 225.056,207.4733 C220.115,210.8863 215.826,215.1633 212.383,220.0803 C206.68,228.2233 203.305,238.1103 203.305,248.7833 C203.305,276.4603 225.819,298.9753 253.495,298.9753" id="Fill-25" fill="#FFFFFF"></path>
            <path d="M208.954,42.6265 L243.831,77.5055 L208.954,112.3825 C206.284,115.0505 206.284,119.3775 208.954,122.0455 C210.287,123.3805 212.037,124.0475 213.785,124.0475 C215.533,124.0475 217.283,123.3805 218.616,122.0455 L253.494,87.1685 L288.373,122.0455 C289.706,123.3805 291.456,124.0475 293.204,124.0475 C293.928,124.0475 294.643,123.9065 295.337,123.6765 C296.322,123.3535 297.254,122.8295 298.036,122.0455 C298.818,121.2635 299.343,120.3325 299.667,119.3485 C300.446,116.9765 299.922,114.2695 298.036,112.3825 L292.718,107.0655 L263.157,77.5055 L298.036,42.6265 C300.705,39.9585 300.705,35.6315 298.036,32.9635 C295.369,30.2945 291.04,30.2945 288.373,32.9635 L253.494,67.8425 L218.616,32.9635 C215.95,30.2945 211.62,30.2945 208.954,32.9635 C206.284,35.6315 206.284,39.9585 208.954,42.6265" id="Fill-27" fill="#FFFFFF"></path>
        </g>
    </g>
</svg>