<?xml version="1.0" encoding="UTF-8"?>
<svg width="386px" height="380px" viewBox="0 0 386 380" version="1.1" xmlns="http://www.w3.org/2000/svg" xmlns:xlink="http://www.w3.org/1999/xlink">
    <!-- Generator: Sketch 55.2 (78181) - https://sketchapp.com -->
    <title>01_01_Tic-Tac-Toe-Icons-color</title>
    <desc>Created with Sketch.</desc>
    <g id="01_01_Tic-Tac-Toe-Icons-color" stroke="none" stroke-width="1" fill="none" fill-rule="evenodd">
        <g id="Group" transform="translate(31.000000, 28.000000)" fill="#5361FD">
            <path d="M153.2502,162.7731 L134.4762,181.5461 C131.6272,184.3951 131.6272,189.0151 134.4762,191.8651 C135.9012,193.2901 137.7682,194.0021 139.6362,194.0021 C141.5032,194.0021 143.3702,193.2901 144.7942,191.8651 L163.5692,173.0911 L182.3422,191.8651 C183.7672,193.2901 185.6332,194.0021 187.5012,194.0021 C189.3682,194.0021 191.2352,193.2901 192.6602,191.8651 C195.5102,189.0151 195.5102,184.3951 192.6602,181.5461 L173.8872,162.7731 L192.6602,143.9981 C195.5102,141.1491 195.5102,136.5291 192.6602,133.6801 C189.8102,130.8311 185.1922,130.8311 182.3422,133.6801 L163.5692,152.4541 L144.7942,133.6801 C141.9452,130.8321 137.3272,130.8311 134.4762,133.6801 C131.6272,136.5291 131.6272,141.1491 134.4762,143.9981 L153.2502,162.7731 Z" id="Fill-8"></path>
            <path d="M56.547,280.228 L75.32,261.456 C78.17,258.606 78.17,253.986 75.32,251.136 C72.47,248.288 67.852,248.288 65.002,251.136 L46.229,269.911 L27.454,251.136 C24.604,248.288 19.986,248.288 17.136,251.136 C14.288,253.986 14.288,258.606 17.136,261.456 L35.91,280.228 L17.136,299.002 C14.288,301.852 14.288,306.471 17.136,309.321 C18.561,310.745 20.428,311.457 22.296,311.457 C24.163,311.457 26.029,310.745 27.454,309.321 L46.229,290.547 L65.002,309.321 C66.426,310.745 68.294,311.457 70.162,311.457 C72.028,311.457 73.895,310.745 75.32,309.321 C78.17,306.471 78.17,301.852 75.32,299.002 L56.547,280.228 Z" id="Fill-12"></path>
            <path d="M268.1315,42.0114 L249.3585,60.7844 C246.5085,63.6354 246.5085,68.2544 249.3585,71.1034 C250.7825,72.5284 252.6505,73.2404 254.5175,73.2404 C256.3845,73.2404 258.2515,72.5284 259.6765,71.1034 L278.4495,52.3304 L297.2245,71.1034 C298.6495,72.5284 300.5155,73.2404 302.3825,73.2404 C304.2505,73.2404 306.1175,72.5284 307.5425,71.1034 C310.3915,68.2544 310.3915,63.6354 307.5425,60.7844 L288.7685,42.0114 L307.5425,23.2384 C310.3915,20.3884 310.3915,15.7684 307.5425,12.9194 C304.6925,10.0714 300.0735,10.0714 297.2245,12.9194 L278.4495,31.6934 L259.6765,12.9194 C256.8265,10.0714 252.2085,10.0714 249.3585,12.9194 C246.5085,15.7684 246.5085,20.3884 249.3585,23.2384 L268.1315,42.0114 Z" id="Fill-10"></path>
            <g id="Group-14">
                <path d="M25.9864751,71.1897534 C31.4067306,74.855364 37.9801365,77.0044797 45.0022391,77 C49.6776582,77 54.1646247,76.0488186 58.2387902,74.3259368 C64.3455516,71.741614 69.5279979,67.4388961 73.1938496,62.0145102 C76.8597012,56.5946111 79.0044712,50.0216374 79,43 C79.0044712,38.3248848 78.0532343,33.8337267 76.3302391,29.7643156 C73.7457464,23.6534691 69.4427456,18.4758502 64.0180031,14.8147262 C58.5977476,11.144629 52.0243416,9 45.0022391,9 C40.322333,9 35.8353665,9.95566103 31.7656879,11.6740562 C25.6544396,14.2628656 20.4719933,18.5655836 16.8106286,23.9854828 C13.144777,29.4053819 10.99552,35.9783556 11,43 C11,47.6795949 11.9512439,52.1662663 13.674239,56.2356774 C16.2587317,62.3420373 20.5617326,67.5286295 25.9864751,71.1897534 M24.4519326,34.3227738 C26.139032,30.3296362 28.9747948,26.9152792 32.5374462,24.5104233 C36.1045845,22.1055674 40.3627157,20.7057259 45.0022391,20.7012392 C48.093759,20.7057259 51.0147742,21.3293732 53.6800323,22.4555278 C57.6734325,24.1425163 61.088014,26.9780926 63.493028,30.5360231 C65.902529,34.1029269 67.2979756,38.3652649 67.2979756,42.9999965 C67.2979756,46.0913131 66.6742872,49.0121363 65.5480587,51.6772191 C63.8609593,55.6703568 61.0251964,59.0892004 57.462545,61.4940563 C53.8998936,63.8989123 49.6372755,65.2942671 45.0022391,65.2987538 C41.9062322,65.2987538 38.985217,64.6751064 36.3244459,63.5489519 C32.3310457,61.8574767 28.9119772,59.0219004 26.5069632,55.4639699 C24.1019492,51.897066 22.7065026,47.6392148 22.7020156,42.9999965 C22.7020156,39.9041932 23.325704,36.9878567 24.4519326,34.3227738" id="Fill-1"></path>
                <path d="M260.986475,305.189753 C266.406731,308.855364 272.980137,311.00448 280.002239,311 C284.677658,311 289.164625,310.048819 293.23879,308.325937 C299.345552,305.741614 304.527998,301.438896 308.19385,296.01451 C311.859701,290.594611 314.004471,284.021637 314,277 C314.004471,272.324885 313.053234,267.833727 311.330239,263.764316 C308.745746,257.653469 304.442746,252.47585 299.018003,248.814726 C293.597748,245.144629 287.024342,243 280.002239,243 C275.322333,243 270.835367,243.955661 266.765688,245.674056 C260.65444,248.262866 255.471993,252.565584 251.810629,257.985483 C248.144777,263.405382 245.99552,269.978356 246,277 C246,281.679595 246.951244,286.166266 248.674239,290.235677 C251.258732,296.342037 255.561733,301.528629 260.986475,305.189753 M259.451933,268.322774 C261.139032,264.329636 263.974795,260.915279 267.537446,258.510423 C271.104585,256.105567 275.362716,254.705726 280.002239,254.701239 C283.093759,254.705726 286.014774,255.329373 288.680032,256.455528 C292.673432,258.142516 296.088014,260.978093 298.493028,264.536023 C300.902529,268.102927 302.297976,272.365265 302.297976,276.999996 C302.297976,280.091313 301.674287,283.012136 300.548059,285.677219 C298.860959,289.670357 296.025196,293.0892 292.462545,295.494056 C288.899894,297.898912 284.637275,299.294267 280.002239,299.298754 C276.906232,299.298754 273.985217,298.675106 271.324446,297.548952 C267.331046,295.857477 263.911977,293.0219 261.506963,289.46397 C259.101949,285.897066 257.706503,281.639215 257.702016,276.999996 C257.702016,273.904193 258.325704,270.987857 259.451933,268.322774" id="Fill-1"></path>
                <path d="M319.606712,229.0998 C322.556956,229.0998 324.949932,226.7095 324.949932,223.7534 C324.949932,220.8014 322.556956,218.407 319.606712,218.407 L229.5792,218.407 L229.5792,106.1162 L319.606712,106.1162 C322.556956,106.1162 324.949932,103.7259 324.949932,100.7698 C324.949932,97.8137 322.556956,95.4234 319.606712,95.4234 L229.5792,95.4234 L229.5792,5.3464 C229.5792,2.3944 227.190322,0 224.240078,0 C221.285737,0 218.892761,2.3944 218.892761,5.3464 L218.892761,95.4234 L106.672859,95.4234 L106.672859,5.3464 C106.672859,2.3944 104.279883,0 101.325541,0 C98.3752976,0 95.982322,2.3944 95.982322,5.3464 L95.982322,95.4234 L5.95890732,95.4234 C3.00866341,95.4234 0.615687805,97.8137 0.615687805,100.7698 C0.615687805,103.7259 3.00866341,106.1162 5.95890732,106.1162 L95.982322,106.1162 L95.982322,218.407 L5.95890732,218.407 C3.00866341,218.407 0.615687805,220.8014 0.615687805,223.7534 C0.615687805,226.7095 3.00866341,229.0998 5.95890732,229.0998 L95.982322,229.0998 L95.982322,319.1809 C95.982322,322.1288 98.3752976,324.5232 101.325541,324.5232 C104.279883,324.5232 106.672859,322.1288 106.672859,319.1809 L106.672859,229.0998 L218.892761,229.0998 L218.892761,319.1809 C218.892761,322.1288 221.285737,324.5232 224.240078,324.5232 C227.190322,324.5232 229.5792,322.1288 229.5792,319.1809 L229.5792,229.0998 L319.606712,229.0998 Z M106.672859,218.407 L218.892761,218.407 L218.892761,106.1162 L106.672859,106.1162 L106.672859,218.407 Z" id="Fill-12"></path>
            </g>
        </g>
    </g>
</svg>