<svg width="24" height="24" viewBox="0 0 24 24" fill="none" xmlns="http://www.w3.org/2000/svg">
<mask id="path-1-inside-1" fill="white">
<path fill-rule="evenodd" clip-rule="evenodd" d="M3.74999 9.25002C3.07291 9.25002 2.48697 9.00263 1.99218 8.50783C1.49739 8.01304 1.25 7.42711 1.25 6.75003C1.25 6.07294 1.49739 5.48701 1.99218 4.99222C2.48697 4.49743 3.07291 4.25003 3.74999 4.25003C4.42707 4.25003 5.01301 4.49743 5.5078 4.99222C6.00259 5.48701 6.24999 6.07294 6.24999 6.75003C6.24999 7.42711 6.00259 8.01304 5.5078 8.50783C5.01301 9.00263 4.42707 9.25002 3.74999 9.25002ZM21.25 9.25002C20.5729 9.25002 19.9869 9.00263 19.4921 8.50783C18.9974 8.01304 18.75 7.42711 18.75 6.75003C18.75 6.07294 18.9974 5.48701 19.4921 4.99222C19.9869 4.49743 20.5729 4.25003 21.25 4.25003C21.927 4.25003 22.513 4.49743 23.0078 4.99222C23.5025 5.48701 23.7499 6.07294 23.7499 6.75003C23.7499 7.42711 23.5025 8.01304 23.0078 8.50783C22.513 9.00263 21.927 9.25002 21.25 9.25002ZM22.4999 10.5C23.177 10.5 23.763 10.7474 24.2578 11.2422C24.7525 11.737 24.9999 12.3229 24.9999 13V14.25C24.9999 14.5885 24.8762 14.8815 24.6288 15.1289C24.3815 15.3763 24.0885 15.5 23.7499 15.5H21.1718C21.0416 14.5885 20.7161 13.7552 20.1953 13C19.6744 12.2448 19.0234 11.6589 18.2421 11.2422C18.7369 10.7474 19.3229 10.5 20 10.5H22.4999ZM12.5 10.5C11.7187 10.5 10.9896 10.3047 10.3125 9.91408C9.63539 9.52346 9.10154 8.9896 8.71092 8.31252C8.32029 7.63544 8.12498 6.90628 8.12498 6.12503C8.12498 5.34378 8.32029 4.61461 8.71092 3.93753C9.10154 3.26045 9.63539 2.7266 10.3125 2.33597C10.9896 1.94535 11.7187 1.75004 12.5 1.75004C13.2812 1.75004 14.0104 1.94535 14.6875 2.33597C15.3645 2.7266 15.8984 3.26045 16.289 3.93753C16.6796 4.61461 16.875 5.34378 16.875 6.12503C16.875 6.90628 16.6796 7.63544 16.289 8.31252C15.8984 8.9896 15.3645 9.52346 14.6875 9.91408C14.0104 10.3047 13.2812 10.5 12.5 10.5ZM15.5078 11.75C16.3151 11.75 17.0638 11.9518 17.7539 12.3555C18.444 12.7591 18.9908 13.306 19.3945 13.9961C19.7981 14.6862 20 15.4349 20 16.2422V17.375C20 17.8958 19.8177 18.3385 19.4531 18.7031C19.0885 19.0677 18.6458 19.25 18.125 19.25H6.87498C6.35415 19.25 5.91144 19.0677 5.54686 18.7031C5.18228 18.3385 4.99999 17.8958 4.99999 17.375V16.2422C4.99999 15.4349 5.20181 14.6862 5.60546 13.9961C6.0091 13.306 6.55597 12.7591 7.24608 12.3555C7.93618 11.9518 8.68488 11.75 9.49217 11.75H9.80466C10.6901 12.1667 11.5885 12.375 12.5 12.375C13.4114 12.375 14.3099 12.1667 15.1953 11.75H15.5078ZM6.7578 11.2422C5.97655 11.6589 5.32551 12.2448 4.80468 13C4.28384 13.7552 3.95832 14.5885 3.82812 15.5H1.25C0.911456 15.5 0.618488 15.3763 0.371093 15.1289C0.123698 14.8815 0 14.5885 0 14.25V13C0 12.3229 0.247395 11.737 0.742186 11.2422C1.23698 10.7474 1.82291 10.5 2.49999 10.5H4.99999C5.67707 10.5 6.26301 10.7474 6.7578 11.2422Z"/>
</mask>
<path d="M21.1718 15.5L19.6869 15.7121L19.8709 17H21.1718V15.5ZM18.2421 11.2422L17.1815 10.1815L15.75 11.613L17.5363 12.5657L18.2421 11.2422ZM9.80466 11.75L10.4434 10.3928L10.14 10.25H9.80466V11.75ZM15.1953 11.75V10.25H14.86L14.5566 10.3928L15.1953 11.75ZM6.7578 11.2422L7.46368 12.5657L9.24996 11.613L7.81846 10.1815L6.7578 11.2422ZM3.82812 15.5V17H5.12906L5.31304 15.7121L3.82812 15.5ZM3.74999 7.75002C3.48537 7.75002 3.27685 7.67118 3.05284 7.44717L0.931523 9.56849C1.6971 10.3341 2.66045 10.75 3.74999 10.75V7.75002ZM3.05284 7.44717C2.82884 7.22317 2.75 7.01465 2.75 6.75003H-0.250003C-0.250003 7.83957 0.165947 8.80292 0.931523 9.56849L3.05284 7.44717ZM2.75 6.75003C2.75 6.4854 2.82884 6.27688 3.05284 6.05288L0.931523 3.93156C0.165947 4.69713 -0.250003 5.66049 -0.250003 6.75003H2.75ZM3.05284 6.05288C3.27685 5.82887 3.48537 5.75003 3.74999 5.75003V2.75003C2.66045 2.75003 1.6971 3.16598 0.931523 3.93156L3.05284 6.05288ZM3.74999 5.75003C4.01461 5.75003 4.22313 5.82887 4.44714 6.05288L6.56846 3.93156C5.80288 3.16598 4.83953 2.75003 3.74999 2.75003V5.75003ZM4.44714 6.05288C4.67115 6.27688 4.74999 6.4854 4.74999 6.75003H7.74999C7.74999 5.66049 7.33404 4.69713 6.56846 3.93156L4.44714 6.05288ZM4.74999 6.75003C4.74999 7.01465 4.67114 7.22317 4.44714 7.44717L6.56846 9.56849C7.33404 8.80292 7.74999 7.83957 7.74999 6.75003H4.74999ZM4.44714 7.44717C4.22313 7.67118 4.01461 7.75002 3.74999 7.75002V10.75C4.83953 10.75 5.80288 10.3341 6.56846 9.56849L4.44714 7.44717ZM21.25 7.75002C20.9853 7.75002 20.7768 7.67118 20.5528 7.44717L18.4315 9.56849C19.1971 10.3341 20.1604 10.75 21.25 10.75V7.75002ZM20.5528 7.44717C20.3288 7.22317 20.25 7.01465 20.25 6.75003H17.25C17.25 7.83957 17.6659 8.80292 18.4315 9.56849L20.5528 7.44717ZM20.25 6.75003C20.25 6.4854 20.3288 6.27688 20.5528 6.05288L18.4315 3.93156C17.6659 4.69713 17.25 5.66049 17.25 6.75003H20.25ZM20.5528 6.05288C20.7768 5.82887 20.9853 5.75003 21.25 5.75003V2.75003C20.1604 2.75003 19.1971 3.16598 18.4315 3.93156L20.5528 6.05288ZM21.25 5.75003C21.5146 5.75003 21.7231 5.82887 21.9471 6.05288L24.0684 3.93156C23.3028 3.16598 22.3395 2.75003 21.25 2.75003V5.75003ZM21.9471 6.05288C22.1711 6.27688 22.2499 6.4854 22.2499 6.75003H25.2499C25.2499 5.66049 24.834 4.69713 24.0684 3.93156L21.9471 6.05288ZM22.2499 6.75003C22.2499 7.01465 22.1711 7.22317 21.9471 7.44717L24.0684 9.56849C24.834 8.80292 25.2499 7.83957 25.2499 6.75003H22.2499ZM21.9471 7.44717C21.7231 7.67118 21.5146 7.75002 21.25 7.75002V10.75C22.3395 10.75 23.3028 10.3341 24.0684 9.56849L21.9471 7.44717ZM22.4999 12C22.7646 12 22.9731 12.0789 23.1971 12.3029L25.3184 10.1815C24.5528 9.41597 23.5895 9.00002 22.4999 9.00002V12ZM23.1971 12.3029C23.4211 12.5269 23.4999 12.7354 23.4999 13H26.4999C26.4999 11.9105 26.084 10.9471 25.3184 10.1815L23.1971 12.3029ZM23.4999 13V14.25H26.4999V13H23.4999ZM23.4999 14.25C23.4999 14.232 23.5042 14.1901 23.5253 14.1402C23.5459 14.0913 23.5688 14.0677 23.5682 14.0683L25.6895 16.1896C26.2077 15.6714 26.4999 15.001 26.4999 14.25H23.4999ZM23.5682 14.0683C23.5676 14.0688 23.5912 14.046 23.6401 14.0254C23.69 14.0043 23.7319 14 23.7499 14V17C24.5009 17 25.1713 16.7078 25.6895 16.1896L23.5682 14.0683ZM23.7499 14H21.1718V17H23.7499V14ZM22.6567 15.2879C22.4939 14.1477 22.0831 13.0953 21.4301 12.1484L18.9604 13.8516C19.3491 14.4151 19.5894 15.0294 19.6869 15.7121L22.6567 15.2879ZM21.4301 12.1484C20.7783 11.2033 19.9485 10.4523 18.948 9.91867L17.5363 12.5657C18.0983 12.8655 18.5706 13.2863 18.9604 13.8516L21.4301 12.1484ZM19.3028 12.3029C19.5268 12.0789 19.7353 12 20 12V9.00002C18.9104 9.00002 17.9471 9.41597 17.1815 10.1815L19.3028 12.3029ZM20 12H22.4999V9.00002H20V12ZM12.5 9.00002C11.982 9.00002 11.5113 8.87401 11.0621 8.6148L9.56289 11.2134C10.4678 11.7354 11.4554 12 12.5 12V9.00002ZM11.0621 8.6148C10.6133 8.35592 10.2691 8.01167 10.0102 7.56294L7.41164 9.06211C7.934 9.96754 8.65746 10.691 9.56289 11.2134L11.0621 8.6148ZM10.0102 7.56294C9.75099 7.11365 9.62498 6.64298 9.62498 6.12503H6.62498C6.62498 7.16957 6.88959 8.15723 7.41164 9.06211L10.0102 7.56294ZM9.62498 6.12503C9.62498 5.60708 9.75099 5.1364 10.0102 4.68712L7.41164 3.18795C6.88959 4.09283 6.62498 5.08048 6.62498 6.12503H9.62498ZM10.0102 4.68712C10.2691 4.23839 10.6133 3.89413 11.0621 3.63525L9.56289 1.0367C8.65746 1.55906 7.93401 2.28251 7.41164 3.18795L10.0102 4.68712ZM11.0621 3.63525C11.5113 3.37605 11.982 3.25004 12.5 3.25004V0.250038C11.4554 0.250038 10.4678 0.514651 9.56289 1.0367L11.0621 3.63525ZM12.5 3.25004C13.0179 3.25004 13.4886 3.37605 13.9379 3.63525L15.437 1.0367C14.5322 0.514651 13.5445 0.250038 12.5 0.250038V3.25004ZM13.9379 3.63525C14.3866 3.89413 14.7309 4.23839 14.9897 4.68712L17.5883 3.18795C17.0659 2.28251 16.3425 1.55906 15.437 1.0367L13.9379 3.63525ZM14.9897 4.68712C15.2489 5.1364 15.375 5.60707 15.375 6.12503H18.375C18.375 5.08048 18.1103 4.09283 17.5883 3.18795L14.9897 4.68712ZM15.375 6.12503C15.375 6.64298 15.2489 7.11365 14.9897 7.56294L17.5883 9.06211C18.1103 8.15723 18.375 7.16957 18.375 6.12503H15.375ZM14.9897 7.56294C14.7309 8.01167 14.3866 8.35592 13.9379 8.6148L15.437 11.2134C16.3425 10.691 17.0659 9.96754 17.5883 9.06211L14.9897 7.56294ZM13.9379 8.6148C13.4886 8.87401 13.0179 9.00002 12.5 9.00002V12C13.5445 12 14.5322 11.7354 15.437 11.2134L13.9379 8.6148ZM15.5078 13.25C16.0516 13.25 16.5385 13.3824 16.9965 13.6503L18.5112 11.0607C17.589 10.5213 16.5785 10.25 15.5078 10.25V13.25ZM16.9965 13.6503C17.4643 13.9239 17.8261 14.2856 18.0997 14.7534L20.6893 13.2388C20.1556 12.3264 19.4236 11.5944 18.5112 11.0607L16.9965 13.6503ZM18.0997 14.7534C18.3676 15.2114 18.5 15.6983 18.5 16.2422H21.5C21.5 15.1715 21.2287 14.161 20.6893 13.2388L18.0997 14.7534ZM18.5 16.2422V17.375H21.5V16.2422H18.5ZM18.5 17.375C18.5 17.5025 18.4725 17.5624 18.3924 17.6425L20.5137 19.7638C21.1628 19.1147 21.5 18.2891 21.5 17.375H18.5ZM18.3924 17.6425C18.3123 17.7225 18.2525 17.75 18.125 17.75V20.75C19.0391 20.75 19.8647 20.4129 20.5137 19.7638L18.3924 17.6425ZM18.125 17.75H6.87498V20.75H18.125V17.75ZM6.87498 17.75C6.74744 17.75 6.68761 17.7225 6.60752 17.6425L4.4862 19.7638C5.13528 20.4129 5.96087 20.75 6.87498 20.75V17.75ZM6.60752 17.6425C6.52744 17.5624 6.49999 17.5025 6.49999 17.375H3.49999C3.49999 18.2891 3.83712 19.1147 4.4862 19.7638L6.60752 17.6425ZM6.49999 17.375V16.2422H3.49999V17.375H6.49999ZM6.49999 16.2422C6.49999 15.6983 6.63236 15.2114 6.90024 14.7534L4.31067 13.2388C3.77127 14.161 3.49999 15.1715 3.49999 16.2422H6.49999ZM6.90024 14.7534C7.17384 14.2856 7.53562 13.9239 8.0034 13.6503L6.48875 11.0607C5.57633 11.5944 4.84436 12.3264 4.31067 13.2388L6.90024 14.7534ZM8.0034 13.6503C8.46139 13.3824 8.94832 13.25 9.49217 13.25V10.25C8.42143 10.25 7.41097 10.5213 6.48875 11.0607L8.0034 13.6503ZM9.49217 13.25H9.80466V10.25H9.49217V13.25ZM9.16597 13.1072C10.2362 13.6109 11.3517 13.875 12.5 13.875V10.875C11.8253 10.875 11.144 10.7225 10.4434 10.3928L9.16597 13.1072ZM12.5 13.875C13.6482 13.875 14.7637 13.6109 15.834 13.1072L14.5566 10.3928C13.856 10.7225 13.1746 10.875 12.5 10.875V13.875ZM15.1953 13.25H15.5078V10.25H15.1953V13.25ZM6.05191 9.91867C5.05142 10.4523 4.22168 11.2033 3.56986 12.1484L6.0395 13.8516C6.42934 13.2863 6.90168 12.8655 7.46368 12.5657L6.05191 9.91867ZM3.56986 12.1484C2.91684 13.0953 2.50608 14.1477 2.34319 15.2879L5.31304 15.7121C5.41057 15.0294 5.65085 14.4151 6.0395 13.8516L3.56986 12.1484ZM3.82812 14H1.25V17H3.82812V14ZM1.25 14C1.26803 14 1.30995 14.0043 1.35982 14.0254C1.40872 14.046 1.43234 14.0688 1.43175 14.0683L-0.689567 16.1896C-0.171388 16.7078 0.498997 17 1.25 17V14ZM1.43175 14.0683C1.43116 14.0677 1.454 14.0913 1.47465 14.1402C1.4957 14.1901 1.5 14.232 1.5 14.25H-1.5C-1.5 15.001 -1.20775 15.6714 -0.689567 16.1896L1.43175 14.0683ZM1.5 14.25V13H-1.5V14.25H1.5ZM1.5 13C1.5 12.7354 1.57884 12.5269 1.80285 12.3029L-0.318474 10.1815C-1.08405 10.9471 -1.5 11.9105 -1.5 13H1.5ZM1.80285 12.3029C2.02685 12.0789 2.23537 12 2.49999 12V9.00002C1.41045 9.00002 0.447101 9.41597 -0.318474 10.1815L1.80285 12.3029ZM2.49999 12H4.99999V9.00002H2.49999V12ZM4.99999 12C5.26461 12 5.47313 12.0789 5.69714 12.3029L7.81846 10.1815C7.05288 9.41597 6.08953 9.00002 4.99999 9.00002V12Z" fill="#5361FD" mask="url(#path-1-inside-1)"/>
</svg>
