<?xml version="1.0" encoding="UTF-8"?>
<svg width="69px" height="125px" viewBox="0 0 69 125" version="1.1" xmlns="http://www.w3.org/2000/svg" xmlns:xlink="http://www.w3.org/1999/xlink">
    <!-- Generator: Sketch 52.3 (67297) - http://www.bohemiancoding.com/sketch -->
    <title>Group 20</title>
    <desc>Created with Sketch.</desc>
    <defs>
        <filter x="-9.5%" y="-9.5%" width="119.0%" height="120.2%" filterUnits="objectBoundingBox" id="filter-1">
            <feOffset dx="0" dy="0" in="SourceAlpha" result="shadowOffsetOuter1"></feOffset>
            <feGaussianBlur stdDeviation="2" in="shadowOffsetOuter1" result="shadowBlurOuter1"></feGaussianBlur>
            <feColorMatrix values="0 0 0 0 0   0 0 0 0 0   0 0 0 0 0  0 0 0 0.168902853 0" type="matrix" in="shadowBlurOuter1" result="shadowMatrixOuter1"></feColorMatrix>
            <feMerge>
                <feMergeNode in="shadowMatrixOuter1"></feMergeNode>
                <feMergeNode in="SourceGraphic"></feMergeNode>
            </feMerge>
        </filter>
        <polygon id="path-2" points="0 -0.000477272727 7.63684091 -0.000477272727 7.63684091 7.63636364 0 7.63636364"></polygon>
    </defs>
    <g id="ðŸ”-Authentication" stroke="none" stroke-width="1" fill="none" fill-rule="evenodd">
        <g id="Auth-Flow/Desktop-11" transform="translate(-477.000000, -199.000000)">
            <g id="Group-2" transform="translate(332.000000, 100.000000)">
                <g id="Group-20" filter="url(#filter-1)" transform="translate(179.396970, 161.396970) rotate(-45.000000) translate(-179.396970, -161.396970) translate(137.396970, 119.396970)">
                    <path d="M45.8191364,40.0909091 C46.8729545,40.0909091 47.7282273,39.2375455 47.7282273,38.1818182 C47.7282273,37.128 46.8729545,36.2727273 45.8191364,36.2727273 C44.7653182,36.2727273 43.9100455,37.128 43.9100455,38.1818182 C43.9100455,39.2375455 44.7653182,40.0909091 45.8191364,40.0909091" id="Fill-1" fill="#FFFFFF" opacity="0.539118304"></path>
                    <path d="M42,43.9090909 C42,42.8552727 41.1466364,42 40.0909091,42 C39.0370909,42 38.1818182,42.8552727 38.1818182,43.9090909 C38.1818182,44.9648182 39.0370909,45.8181818 40.0909091,45.8181818 C41.1466364,45.8181818 42,44.9648182 42,43.9090909" id="Fill-3" fill="#FFFFFF" opacity="0.539118304"></path>
                    <path d="M22.3497273,61.6502727 C21.6032727,60.9038182 20.3967273,60.9038182 19.6502727,61.6502727 L8.19572727,73.1048182 C7.44927273,73.8512727 7.44927273,75.0578182 8.19572727,75.8042727 C8.568,76.1765455 9.05672727,76.3636364 9.54545455,76.3636364 C10.0341818,76.3636364 10.5229091,76.1765455 10.8951818,75.8042727 L22.3497273,64.3497273 C23.0961818,63.6032727 23.0961818,62.3967273 22.3497273,61.6502727" id="Fill-5" fill="#FFFFFF" opacity="0.539118304"></path>
                    <g id="Group-9" transform="translate(0.000000, 76.363636)">
                        <mask id="mask-3" fill="white">
                            <use xlink:href="#path-2"></use>
                        </mask>
                        <g id="Clip-8"></g>
                        <path d="M4.37754545,0.559363636 L0.559363636,4.37754545 C-0.187090909,5.124 -0.187090909,6.33054545 0.559363636,7.077 C0.931636364,7.44927273 1.42036364,7.63636364 1.90909091,7.63636364 C2.39781818,7.63636364 2.88654545,7.44927273 3.25881818,7.077 L7.077,3.25881818 C7.82345455,2.51236364 7.82345455,1.30581818 7.077,0.559363636 C6.33054545,-0.187090909 5.124,-0.187090909 4.37754545,0.559363636" id="Fill-7" fill="#FFFFFF" opacity="0.269308036" mask="url(#mask-3)"></path>
                    </g>
                    <path d="M80.1818182,11.8386545 C80.1818182,14.8588364 79.6205455,17.7854727 78.5934545,20.5307455 L63.4696364,5.40501818 C66.2149091,4.37983636 69.1415455,3.81856364 72.1617273,3.81856364 L80.1818182,3.81856364 L80.1818182,11.8386545 Z M82.0909091,0.000381818182 L72.1617273,0.000381818182 C64.512,0.000381818182 57.3204545,2.97856364 51.912,8.38701818 L29.1957273,31.1052 C28.4492727,31.8497455 28.4492727,33.0582 29.1957273,33.8046545 C29.9421818,34.5492 31.1487273,34.5492 31.8951818,33.8046545 L54.6114545,11.0864727 C56.1788182,9.52101818 57.9294545,8.21329091 59.7984545,7.13465455 L76.8657273,24.2019273 C75.7870909,26.0709273 74.4793636,27.8215636 72.912,29.3870182 L50.1957273,52.1052 C49.4492727,52.8497455 49.4492727,54.0582 50.1957273,54.8046545 C50.568,55.1769273 51.0567273,55.3640182 51.5454545,55.3640182 C52.0341818,55.3640182 52.5229091,55.1769273 52.8951818,54.8046545 L75.6114545,32.0864727 C81.0218182,26.6780182 84,19.4864727 84,11.8386545 L84,1.90947273 C84,0.855654545 83.1447273,0.000381818182 82.0909091,0.000381818182 Z" id="Fill-10" fill="#FFFFFF"></path>
                    <path d="M57.2727273,22.9090909 C59.3784545,22.9090909 61.0909091,24.6215455 61.0909091,26.7272727 C61.0909091,28.833 59.3784545,30.5454545 57.2727273,30.5454545 C55.167,30.5454545 53.4545455,28.833 53.4545455,26.7272727 C53.4545455,24.6215455 55.167,22.9090909 57.2727273,22.9090909 M57.2727273,34.3636364 C61.4841818,34.3636364 64.9090909,30.9387273 64.9090909,26.7272727 C64.9090909,22.5158182 61.4841818,19.0909091 57.2727273,19.0909091 C53.0612727,19.0909091 49.6363636,22.5158182 49.6363636,26.7272727 C49.6363636,30.9387273 53.0612727,34.3636364 57.2727273,34.3636364" id="Fill-12" fill="#FFFFFF"></path>
                    <path d="M25.6721182,65.1105 C24.7252091,64.6389545 23.5816636,65.0226818 23.1101182,65.9638636 L19.2919364,73.6002273 C18.8203909,74.5433182 19.2022091,75.6906818 20.1453,76.1622273 C20.4202091,76.2996818 20.7123,76.3645909 20.9986636,76.3645909 C21.6993,76.3645909 22.3732091,75.9770455 22.7073,75.3088636 L26.5254818,67.6725 C26.9970273,66.7294091 26.6152091,65.5820455 25.6721182,65.1105" id="Fill-14" fill="#FFFFFF"></path>
                    <path d="M9.54736364,64.9090909 C9.83372727,64.9090909 10.1258182,64.8441818 10.3988182,64.7086364 L18.0351818,60.8904545 C18.9782727,60.417 19.362,59.2715455 18.8904545,58.3284545 C18.417,57.3853636 17.2715455,57.0016364 16.3284545,57.4731818 L8.69209091,61.2913636 C7.749,61.7648182 7.36527273,62.9102727 7.83681818,63.8533636 C8.17281818,64.5234545 8.84672727,64.9090909 9.54736364,64.9090909" id="Fill-16" fill="#FFFFFF"></path>
                    <path d="M33.4062273,59.8353 C33.1427727,60.6237545 32.7743182,61.3778455 32.3180455,62.0708455 L21.9287727,51.6834818 C22.6236818,51.2253 23.3777727,50.8568455 24.1662273,50.5933909 L26.2108636,49.9118455 L34.0877727,57.7887545 L33.4062273,59.8353 Z M63.5584091,48.2872091 L59.7402273,52.1053909 C59.3832273,52.4623909 59.1808636,52.9492091 59.1808636,53.4551182 L59.1808636,55.6257545 C59.1808636,59.4744818 57.8235,63.1132091 55.3321364,65.9978455 L47.1669545,57.8326636 C46.4224091,57.0862091 45.2139545,57.0862091 44.4675,57.8326636 L43.3487727,58.9513909 C42.6061364,59.6940273 41.3938636,59.6940273 40.6493182,58.9513909 L25.0501364,43.3503 C24.3055909,42.6057545 24.3055909,41.3934818 25.0501364,40.6508455 L26.1669545,39.5321182 C26.9134091,38.7856636 26.9134091,37.5772091 26.1669545,36.8326636 L18.0036818,28.6674818 C20.8864091,26.1761182 24.5251364,24.8187545 28.3738636,24.8187545 L30.5445,24.8187545 C31.0523182,24.8187545 31.5372273,24.6163909 31.8942273,24.2593909 L35.7124091,20.4412091 C36.4588636,19.6947545 36.4588636,18.4863 35.7124091,17.7417545 C34.9678636,16.9953 33.7594091,16.9953 33.0129545,17.7417545 L29.7541364,21.0005727 L28.3738636,21.0005727 C23.1085909,21.0005727 18.1583182,23.0509364 14.4355909,26.7736636 L13.9220455,27.2872091 C13.1775,28.0317545 13.1775,29.2402091 13.9220455,29.9866636 L22.1254091,38.1881182 C21.1861364,39.2381182 20.6725909,40.5802091 20.6725909,42.0005727 C20.6725909,43.5297545 21.2682273,44.9673 22.3487727,46.0497545 L23.1925909,46.8935727 L22.9577727,46.9718455 C21.0028636,47.6228455 19.1987727,48.7377545 17.7402273,50.1963 C16.9956818,50.9408455 16.9956818,52.1493 17.7402273,52.8957545 L31.1038636,66.2593909 C31.4780455,66.6316636 31.9667727,66.8187545 32.4535909,66.8187545 C32.9423182,66.8187545 33.4310455,66.6316636 33.8033182,66.2593909 C35.2618636,64.8008455 36.3767727,62.9967545 37.0277727,61.0418455 L37.1060455,60.8070273 L37.9498636,61.6508455 C40.0365,63.7355727 43.6294091,63.8272091 45.8115,61.8742091 L54.0129545,70.0775727 C54.3871364,70.4498455 54.8758636,70.6369364 55.3626818,70.6369364 C55.8514091,70.6369364 56.3401364,70.4498455 56.7124091,70.0775727 L57.2259545,69.5640273 C60.9486818,65.8413 62.9990455,60.8910273 62.9990455,55.6257545 L62.9990455,54.2454818 L66.2578636,50.9866636 C67.0043182,50.2402091 67.0043182,49.0317545 66.2578636,48.2872091 C65.5133182,47.5407545 64.3048636,47.5407545 63.5584091,48.2872091 Z" id="Fill-18" fill="#FFFFFF"></path>
                </g>
            </g>
        </g>
    </g>
</svg>